<?xml version="1.0" encoding="UTF-8" standalone="no"?>
<!DOCTYPE svg PUBLIC "-//W3C//DTD SVG 1.1//EN"
 "http://www.w3.org/Graphics/SVG/1.1/DTD/svg11.dtd">
<!-- Generated by graphviz version 2.38.0 (20140413.2041)
 -->
<!-- Title: controllers_diagram Pages: 1 -->
<svg width="316pt" height="239pt"
 viewBox="0.00 0.00 315.51 239.00" xmlns="http://www.w3.org/2000/svg" xmlns:xlink="http://www.w3.org/1999/xlink">
<g id="graph0" class="graph" transform="scale(1 1) rotate(0) translate(115.688 193.5)">
<title>controllers_diagram</title>
<polygon fill="none" stroke="none" points="-115.688,45.5 -115.688,-193.5 199.821,-193.5 199.821,45.5 -115.688,45.5"/>
<!-- _diagram_info -->
<g id="node1" class="node"><title>_diagram_info</title>
<text text-anchor="start" x="-103.688" y="-17.1" font-family="Times,serif" font-size="13.00">Controllers diagram</text>
<text text-anchor="start" x="-103.688" y="-4.1" font-family="Times,serif" font-size="13.00">Date: Aug 04 2016 &#45; 16:51</text>
<text text-anchor="start" x="-103.688" y="8.9" font-family="Times,serif" font-size="13.00">Migration version: 20160803200719</text>
<text text-anchor="start" x="-103.688" y="21.9" font-family="Times,serif" font-size="13.00">Generated by RailRoady 1.5.1</text>
<text text-anchor="start" x="-103.688" y="34.9" font-family="Times,serif" font-size="13.00">http://railroady.prestonlee.com</text>
</g>
<!-- ApplicationController -->
<g id="node2" class="node"><title>ApplicationController</title>
<path fill="none" stroke="black" d="M68.1792,-57C68.1792,-57 183.821,-57 183.821,-57 189.821,-57 195.821,-63 195.821,-69 195.821,-69 195.821,-137 195.821,-137 195.821,-143 189.821,-149 183.821,-149 183.821,-149 68.1792,-149 68.1792,-149 62.1792,-149 56.1792,-143 56.1792,-137 56.1792,-137 56.1792,-69 56.1792,-69 56.1792,-63 62.1792,-57 68.1792,-57"/>
<text text-anchor="middle" x="126" y="-133.8" font-family="Times,serif" font-size="14.00">ApplicationController</text>
<polyline fill="none" stroke="black" points="56.1792,-127 195.821,-127 "/>
<polyline fill="none" stroke="black" points="56.1792,-103 195.821,-103 "/>
<polyline fill="none" stroke="black" points="56.1792,-79 195.821,-79 "/>
<text text-anchor="start" x="64.1792" y="-63.8" font-family="Times,serif" font-size="14.00">_layout</text>
</g>
<!-- ServicesController -->
<g id="node3" class="node"><title>ServicesController</title>
<path fill="none" stroke="black" d="M-86.4863,-99C-86.4863,-99 10.4863,-99 10.4863,-99 16.4863,-99 22.4863,-105 22.4863,-111 22.4863,-111 22.4863,-177 22.4863,-177 22.4863,-183 16.4863,-189 10.4863,-189 10.4863,-189 -86.4863,-189 -86.4863,-189 -92.4863,-189 -98.4863,-183 -98.4863,-177 -98.4863,-177 -98.4863,-111 -98.4863,-111 -98.4863,-105 -92.4863,-99 -86.4863,-99"/>
<text text-anchor="middle" x="-38" y="-173.8" font-family="Times,serif" font-size="14.00">ServicesController</text>
<polyline fill="none" stroke="black" points="-98.4863,-167 22.4863,-167 "/>
<text text-anchor="start" x="-90.4863" y="-151.8" font-family="Times,serif" font-size="14.00">index</text>
<polyline fill="none" stroke="black" points="-98.4863,-145 22.4863,-145 "/>
<polyline fill="none" stroke="black" points="-98.4863,-121 22.4863,-121 "/>
<text text-anchor="start" x="-90.4863" y="-105.8" font-family="Times,serif" font-size="14.00">_layout</text>
</g>
</g>
</svg>
