<?xml version="1.0" encoding="UTF-8" standalone="no"?>
<!DOCTYPE svg PUBLIC "-//W3C//DTD SVG 1.1//EN"
 "http://www.w3.org/Graphics/SVG/1.1/DTD/svg11.dtd">
<!-- Generated by graphviz version 2.38.0 (20140413.2041)
 -->
<!-- Title: models_diagram Pages: 1 -->
<svg width="494pt" height="369pt"
 viewBox="0.00 0.00 494.48 369.00" xmlns="http://www.w3.org/2000/svg" xmlns:xlink="http://www.w3.org/1999/xlink">
<g id="graph0" class="graph" transform="scale(1 1) rotate(0) translate(4 365)">
<title>models_diagram</title>
<polygon fill="none" stroke="none" points="-4,4 -4,-365 490.477,-365 490.477,4 -4,4"/>
<!-- _diagram_info -->
<g id="node1" class="node"><title>_diagram_info</title>
<text text-anchor="start" x="8" y="-346.6" font-family="Times,serif" font-size="13.00">Models diagram</text>
<text text-anchor="start" x="8" y="-333.6" font-family="Times,serif" font-size="13.00">Date: Jul 25 2016 &#45; 18:58</text>
<text text-anchor="start" x="8" y="-320.6" font-family="Times,serif" font-size="13.00">Migration version: 20160725215717</text>
<text text-anchor="start" x="8" y="-307.6" font-family="Times,serif" font-size="13.00">Generated by RailRoady 1.5.1</text>
<text text-anchor="start" x="8" y="-294.6" font-family="Times,serif" font-size="13.00">http://railroady.prestonlee.com</text>
</g>
<!-- Order -->
<g id="node2" class="node"><title>Order</title>
<ellipse fill="none" stroke="black" cx="233.688" cy="-90" rx="30.9619" ry="18"/>
<text text-anchor="middle" x="233.688" y="-85.8" font-family="Times,serif" font-size="14.00">Order</text>
</g>
<!-- Survey -->
<g id="node6" class="node"><title>Survey</title>
<ellipse fill="none" stroke="black" cx="233.688" cy="-18" rx="35.3216" ry="18"/>
<text text-anchor="middle" x="233.688" y="-13.8" font-family="Times,serif" font-size="14.00">Survey</text>
</g>
<!-- Order&#45;&gt;Survey -->
<g id="edge1" class="edge"><title>Order&#45;&gt;Survey</title>
<path fill="none" stroke="#8054d4" d="M233.688,-63.6398C233.688,-57.348 233.688,-50.6053 233.688,-44.3156"/>
<ellipse fill="none" stroke="#8054d4" cx="233.688" cy="-67.6966" rx="4" ry="4"/>
<ellipse fill="#8054d4" stroke="#8054d4" cx="233.688" cy="-40.1043" rx="4" ry="4"/>
</g>
<!-- Service -->
<g id="node3" class="node"><title>Service</title>
<ellipse fill="none" stroke="black" cx="261.688" cy="-324.5" rx="36.7489" ry="18"/>
<text text-anchor="middle" x="261.688" y="-320.3" font-family="Times,serif" font-size="14.00">Service</text>
</g>
<!-- Service&#45;&gt;Order -->
<g id="edge4" class="edge"><title>Service&#45;&gt;Order</title>
<path fill="none" stroke="#b32288" d="M247.223,-300.08C239.548,-286.527 230.693,-268.862 225.688,-252 211.991,-205.858 210.657,-191.615 217.688,-144 218.985,-135.212 221.431,-125.862 224.028,-117.5"/>
<ellipse fill="none" stroke="#b32288" cx="249.324" cy="-303.697" rx="4.00002" ry="4.00002"/>
<polygon fill="#b32288" stroke="#b32288" points="224.064,-117.391 231.474,-109.308 225.633,-112.643 227.202,-107.896 227.202,-107.896 227.202,-107.896 225.633,-112.643 222.929,-106.484 224.064,-117.391 224.064,-117.391"/>
</g>
<!-- User -->
<g id="node7" class="node"><title>User</title>
<ellipse fill="none" stroke="black" cx="261.688" cy="-234" rx="27" ry="18"/>
<text text-anchor="middle" x="261.688" y="-229.8" font-family="Times,serif" font-size="14.00">User</text>
</g>
<!-- Service&#45;&gt;User -->
<g id="edge3" class="edge"><title>Service&#45;&gt;User</title>
<path fill="none" stroke="#fd60ec" d="M261.688,-296.092C261.688,-285.289 261.688,-272.912 261.688,-262.136"/>
<polygon fill="#fd60ec" stroke="#fd60ec" points="261.688,-296.436 257.188,-306.436 261.688,-301.436 261.688,-306.436 261.688,-306.436 261.688,-306.436 261.688,-301.436 266.188,-306.436 261.688,-296.436 261.688,-296.436"/>
<polygon fill="#fd60ec" stroke="#fd60ec" points="261.688,-262.011 266.188,-252.011 261.688,-257.011 261.688,-252.011 261.688,-252.011 261.688,-252.011 261.688,-257.011 257.188,-252.011 261.688,-262.011 261.688,-262.011"/>
</g>
<!-- UserService -->
<g id="node8" class="node"><title>UserService</title>
<ellipse fill="none" stroke="black" cx="359.688" cy="-162" rx="53.1453" ry="18"/>
<text text-anchor="middle" x="359.688" y="-157.8" font-family="Times,serif" font-size="14.00">UserService</text>
</g>
<!-- Service&#45;&gt;UserService -->
<g id="edge2" class="edge"><title>Service&#45;&gt;UserService</title>
<path fill="none" stroke="#cb67cc" d="M276.068,-299.948C294.233,-270.199 325.373,-219.199 344.094,-188.539"/>
<ellipse fill="none" stroke="#cb67cc" cx="273.891" cy="-303.514" rx="4.00002" ry="4.00002"/>
<polygon fill="#cb67cc" stroke="#cb67cc" points="344.266,-188.257 353.318,-182.067 346.872,-183.99 349.477,-179.722 349.477,-179.722 349.477,-179.722 346.872,-183.99 345.637,-177.377 344.266,-188.257 344.266,-188.257"/>
</g>
<!-- Slot -->
<g id="node4" class="node"><title>Slot</title>
<ellipse fill="none" stroke="black" cx="261.688" cy="-162" rx="27" ry="18"/>
<text text-anchor="middle" x="261.688" y="-157.8" font-family="Times,serif" font-size="14.00">Slot</text>
</g>
<!-- Slot&#45;&gt;Order -->
<g id="edge5" class="edge"><title>Slot&#45;&gt;Order</title>
<path fill="none" stroke="#031b06" d="M251.999,-136.778C249.505,-130.544 246.81,-123.805 244.273,-117.463"/>
<ellipse fill="none" stroke="#031b06" cx="253.567" cy="-140.697" rx="4.00001" ry="4.00001"/>
<polygon fill="#031b06" stroke="#031b06" points="244.184,-117.241 244.648,-106.285 242.327,-112.599 240.47,-107.956 240.47,-107.956 240.47,-107.956 242.327,-112.599 236.292,-109.627 244.184,-117.241 244.184,-117.241"/>
</g>
<!-- State -->
<g id="node5" class="node"><title>State</title>
<ellipse fill="none" stroke="black" cx="458.688" cy="-162" rx="27.5804" ry="18"/>
<text text-anchor="middle" x="458.688" y="-157.8" font-family="Times,serif" font-size="14.00">State</text>
</g>
<!-- State&#45;&gt;Order -->
<g id="edge6" class="edge"><title>State&#45;&gt;Order</title>
<path fill="none" stroke="#cf864d" d="M429.376,-147.031C426.796,-145.955 424.209,-144.928 421.688,-144 370.712,-125.234 309.922,-109.201 271.558,-99.8292"/>
<ellipse fill="none" stroke="#cf864d" cx="433.345" cy="-148.761" rx="4.00002" ry="4.00002"/>
<polygon fill="#cf864d" stroke="#cf864d" points="271.554,-99.8282 262.891,-93.1049 266.694,-98.6536 261.834,-97.4789 261.834,-97.4789 261.834,-97.4789 266.694,-98.6536 260.776,-101.853 271.554,-99.8282 271.554,-99.8282"/>
</g>
<!-- User&#45;&gt;Order -->
<g id="edge9" class="edge"><title>User&#45;&gt;Order</title>
<path fill="none" stroke="#abfcb0" d="M242.811,-211.543C236.021,-202.456 229.179,-191.353 225.688,-180 219.436,-159.671 222.175,-135.592 226.067,-117.609"/>
<ellipse fill="none" stroke="#abfcb0" cx="245.467" cy="-214.923" rx="4.00002" ry="4.00002"/>
<polygon fill="#abfcb0" stroke="#abfcb0" points="226.089,-117.521 232.808,-108.854 227.261,-112.66 228.433,-107.799 228.433,-107.799 228.433,-107.799 227.261,-112.66 224.059,-106.744 226.089,-117.521 226.089,-117.521"/>
</g>
<!-- User&#45;&gt;Slot -->
<g id="edge8" class="edge"><title>User&#45;&gt;Slot</title>
<path fill="none" stroke="#90e923" d="M261.688,-207.64C261.688,-202.063 261.688,-196.132 261.688,-190.476"/>
<ellipse fill="none" stroke="#90e923" cx="261.688" cy="-211.697" rx="4" ry="4"/>
<polygon fill="#90e923" stroke="#90e923" points="261.688,-190.104 266.188,-180.104 261.688,-185.104 261.688,-180.104 261.688,-180.104 261.688,-180.104 261.688,-185.104 257.188,-180.104 261.688,-190.104 261.688,-190.104"/>
</g>
<!-- User&#45;&gt;UserService -->
<g id="edge7" class="edge"><title>User&#45;&gt;UserService</title>
<path fill="none" stroke="#0665c3" d="M286.56,-215.234C299.617,-205.908 315.719,-194.406 329.487,-184.572"/>
<ellipse fill="none" stroke="#0665c3" cx="282.917" cy="-217.836" rx="4.00002" ry="4.00002"/>
<polygon fill="#0665c3" stroke="#0665c3" points="329.573,-184.511 340.325,-182.36 333.641,-181.605 337.71,-178.698 337.71,-178.698 337.71,-178.698 333.641,-181.605 335.094,-175.037 329.573,-184.511 329.573,-184.511"/>
</g>
</g>
</svg>
