<?xml version="1.0" encoding="UTF-8" standalone="no"?>
<!DOCTYPE svg PUBLIC "-//W3C//DTD SVG 1.1//EN"
 "http://www.w3.org/Graphics/SVG/1.1/DTD/svg11.dtd">
<!-- Generated by graphviz version 2.38.0 (20140413.2041)
 -->
<!-- Title: models_diagram Pages: 1 -->
<svg width="368pt" height="441pt"
 viewBox="0.00 0.00 367.77 441.00" xmlns="http://www.w3.org/2000/svg" xmlns:xlink="http://www.w3.org/1999/xlink">
<g id="graph0" class="graph" transform="scale(1 1) rotate(0) translate(4 437)">
<title>models_diagram</title>
<polygon fill="none" stroke="none" points="-4,4 -4,-437 363.772,-437 363.772,4 -4,4"/>
<!-- _diagram_info -->
<g id="node1" class="node"><title>_diagram_info</title>
<text text-anchor="start" x="8" y="-418.6" font-family="Times,serif" font-size="13.00">Models diagram</text>
<text text-anchor="start" x="8" y="-405.6" font-family="Times,serif" font-size="13.00">Date: Jul 26 2016 &#45; 19:02</text>
<text text-anchor="start" x="8" y="-392.6" font-family="Times,serif" font-size="13.00">Migration version: 20160726215116</text>
<text text-anchor="start" x="8" y="-379.6" font-family="Times,serif" font-size="13.00">Generated by RailRoady 1.5.1</text>
<text text-anchor="start" x="8" y="-366.6" font-family="Times,serif" font-size="13.00">http://railroady.prestonlee.com</text>
</g>
<!-- Order -->
<g id="node2" class="node"><title>Order</title>
<ellipse fill="none" stroke="black" cx="188.45" cy="-162" rx="30.9619" ry="18"/>
<text text-anchor="middle" x="188.45" y="-157.8" font-family="Times,serif" font-size="14.00">Order</text>
</g>
<!-- OrderService -->
<g id="node3" class="node"><title>OrderService</title>
<ellipse fill="none" stroke="black" cx="221.45" cy="-18" rx="57.4961" ry="18"/>
<text text-anchor="middle" x="221.45" y="-13.8" font-family="Times,serif" font-size="14.00">OrderService</text>
</g>
<!-- Order&#45;&gt;OrderService -->
<g id="edge1" class="edge"><title>Order&#45;&gt;OrderService</title>
<path fill="none" stroke="#c3aa56" d="M170.681,-138.681C158.401,-120.379 146.003,-93.998 156.45,-72 162.682,-58.8761 173.931,-47.9309 185.339,-39.46"/>
<ellipse fill="none" stroke="#c3aa56" cx="173.202" cy="-142.247" rx="4.00002" ry="4.00002"/>
<polygon fill="#c3aa56" stroke="#c3aa56" points="185.385,-39.4285 196.167,-37.4322 189.495,-36.5809 193.605,-33.7333 193.605,-33.7333 193.605,-33.7333 189.495,-36.5809 191.042,-30.0344 185.385,-39.4285 185.385,-39.4285"/>
</g>
<!-- Survey -->
<g id="node7" class="node"><title>Survey</title>
<ellipse fill="none" stroke="black" cx="200.45" cy="-90" rx="35.3216" ry="18"/>
<text text-anchor="middle" x="200.45" y="-85.8" font-family="Times,serif" font-size="14.00">Survey</text>
</g>
<!-- Order&#45;&gt;Survey -->
<g id="edge3" class="edge"><title>Order&#45;&gt;Survey</title>
<path fill="none" stroke="#524be4" d="M192.738,-135.987C193.82,-129.676 194.983,-122.892 196.069,-116.554"/>
<ellipse fill="none" stroke="#524be4" cx="192.03" cy="-140.112" rx="4.00001" ry="4.00001"/>
<ellipse fill="#524be4" stroke="#524be4" cx="196.812" cy="-112.218" rx="4.00001" ry="4.00001"/>
</g>
<!-- UserService -->
<g id="node9" class="node"><title>UserService</title>
<ellipse fill="none" stroke="black" cx="306.45" cy="-90" rx="53.1453" ry="18"/>
<text text-anchor="middle" x="306.45" y="-85.8" font-family="Times,serif" font-size="14.00">UserService</text>
</g>
<!-- Order&#45;&gt;UserService -->
<g id="edge2" class="edge"><title>Order&#45;&gt;UserService</title>
<path fill="none" stroke="#479f3b" d="M218.056,-143.437C234.661,-133.587 255.437,-121.262 272.675,-111.036"/>
<polygon fill="#479f3b" stroke="#479f3b" points="217.875,-143.544 206.978,-144.776 213.574,-146.096 209.274,-148.647 209.274,-148.647 209.274,-148.647 213.574,-146.096 211.57,-152.517 217.875,-143.544 217.875,-143.544"/>
<polygon fill="#479f3b" stroke="#479f3b" points="272.725,-111.006 283.622,-109.774 277.025,-108.455 281.326,-105.904 281.326,-105.904 281.326,-105.904 277.025,-108.455 279.03,-102.034 272.725,-111.006 272.725,-111.006"/>
</g>
<!-- Service -->
<g id="node4" class="node"><title>Service</title>
<ellipse fill="none" stroke="black" cx="261.45" cy="-396.5" rx="36.7489" ry="18"/>
<text text-anchor="middle" x="261.45" y="-392.3" font-family="Times,serif" font-size="14.00">Service</text>
</g>
<!-- User -->
<g id="node8" class="node"><title>User</title>
<ellipse fill="none" stroke="black" cx="219.45" cy="-306" rx="27" ry="18"/>
<text text-anchor="middle" x="219.45" y="-301.8" font-family="Times,serif" font-size="14.00">User</text>
</g>
<!-- Service&#45;&gt;User -->
<g id="edge5" class="edge"><title>Service&#45;&gt;User</title>
<path fill="none" stroke="#805c6e" d="M249.156,-369.594C243.602,-357.893 237.062,-344.111 231.534,-332.463"/>
<polygon fill="#805c6e" stroke="#805c6e" points="249.262,-369.82 249.484,-380.783 251.406,-374.337 253.55,-378.854 253.55,-378.854 253.55,-378.854 251.406,-374.337 257.615,-376.924 249.262,-369.82 249.262,-369.82"/>
<polygon fill="#805c6e" stroke="#805c6e" points="231.46,-332.307 231.238,-321.343 229.316,-327.79 227.172,-323.273 227.172,-323.273 227.172,-323.273 229.316,-327.79 223.107,-325.202 231.46,-332.307 231.46,-332.307"/>
</g>
<!-- Service&#45;&gt;UserService -->
<g id="edge4" class="edge"><title>Service&#45;&gt;UserService</title>
<path fill="none" stroke="#f4da31" d="M271.491,-370.785C286.837,-331.288 315.118,-251.136 322.45,-180 324.09,-164.084 324.787,-159.828 322.45,-144 321.152,-135.212 318.706,-125.862 316.11,-117.5"/>
<ellipse fill="none" stroke="#f4da31" cx="269.89" cy="-374.856" rx="4.00001" ry="4.00001"/>
<polygon fill="#f4da31" stroke="#f4da31" points="316.074,-117.391 317.209,-106.484 314.505,-112.643 312.936,-107.896 312.936,-107.896 312.936,-107.896 314.505,-112.643 308.663,-109.308 316.074,-117.391 316.074,-117.391"/>
</g>
<!-- Slot -->
<g id="node5" class="node"><title>Slot</title>
<ellipse fill="none" stroke="black" cx="177.45" cy="-234" rx="27" ry="18"/>
<text text-anchor="middle" x="177.45" y="-229.8" font-family="Times,serif" font-size="14.00">Slot</text>
</g>
<!-- Slot&#45;&gt;Order -->
<g id="edge6" class="edge"><title>Slot&#45;&gt;Order</title>
<path fill="none" stroke="#b892ed" d="M181.38,-207.987C182.282,-202.249 183.245,-196.121 184.161,-190.293"/>
<ellipse fill="none" stroke="#b892ed" cx="180.733" cy="-212.103" rx="4.00001" ry="4.00001"/>
<polygon fill="#b892ed" stroke="#b892ed" points="184.183,-190.154 190.18,-180.974 184.959,-185.215 185.735,-180.275 185.735,-180.275 185.735,-180.275 184.959,-185.215 181.29,-179.577 184.183,-190.154 184.183,-190.154"/>
</g>
<!-- State -->
<g id="node6" class="node"><title>State</title>
<ellipse fill="none" stroke="black" cx="250.45" cy="-234" rx="27.5804" ry="18"/>
<text text-anchor="middle" x="250.45" y="-229.8" font-family="Times,serif" font-size="14.00">State</text>
</g>
<!-- State&#45;&gt;Order -->
<g id="edge7" class="edge"><title>State&#45;&gt;Order</title>
<path fill="none" stroke="#af7740" d="M231.673,-211.8C224.51,-203.713 216.309,-194.455 208.99,-186.191"/>
<ellipse fill="none" stroke="#af7740" cx="234.344" cy="-214.817" rx="4.00002" ry="4.00002"/>
<polygon fill="#af7740" stroke="#af7740" points="208.936,-186.13 205.674,-175.66 205.621,-182.387 202.306,-178.644 202.306,-178.644 202.306,-178.644 205.621,-182.387 198.937,-181.628 208.936,-186.13 208.936,-186.13"/>
</g>
<!-- User&#45;&gt;Order -->
<g id="edge10" class="edge"><title>User&#45;&gt;Order</title>
<path fill="none" stroke="#d9065d" d="M188.633,-292.806C171.392,-284.199 151.416,-270.821 141.45,-252 133.962,-237.86 135.772,-230.959 141.45,-216 145.972,-204.083 154.536,-193.129 163.128,-184.311"/>
<ellipse fill="none" stroke="#d9065d" cx="192.698" cy="-294.722" rx="4.00002" ry="4.00002"/>
<polygon fill="#d9065d" stroke="#d9065d" points="163.377,-184.072 173.704,-180.384 166.981,-180.606 170.585,-177.141 170.585,-177.141 170.585,-177.141 166.981,-180.606 167.466,-173.897 163.377,-184.072 163.377,-184.072"/>
</g>
<!-- User&#45;&gt;Slot -->
<g id="edge9" class="edge"><title>User&#45;&gt;Slot</title>
<path fill="none" stroke="#5bab0f" d="M205.719,-282.116C201.475,-275.042 196.779,-267.215 192.453,-260.006"/>
<ellipse fill="none" stroke="#5bab0f" cx="207.861" cy="-285.686" rx="4.00002" ry="4.00002"/>
<polygon fill="#5bab0f" stroke="#5bab0f" points="192.379,-259.882 191.093,-248.992 189.806,-255.594 187.234,-251.307 187.234,-251.307 187.234,-251.307 189.806,-255.594 183.375,-253.622 192.379,-259.882 192.379,-259.882"/>
</g>
<!-- User&#45;&gt;UserService -->
<g id="edge8" class="edge"><title>User&#45;&gt;UserService</title>
<path fill="none" stroke="#0bd286" d="M247.268,-290.475C261.714,-281.416 278.231,-268.362 287.45,-252 311.137,-209.96 311.619,-152.019 309.353,-118.331"/>
<ellipse fill="none" stroke="#0bd286" cx="243.815" cy="-292.543" rx="4.00002" ry="4.00002"/>
<polygon fill="#0bd286" stroke="#0bd286" points="309.348,-118.264 313.032,-107.935 308.947,-113.28 308.547,-108.296 308.547,-108.296 308.547,-108.296 308.947,-113.28 304.061,-108.656 309.348,-118.264 309.348,-118.264"/>
</g>
<!-- UserService&#45;&gt;OrderService -->
<g id="edge11" class="edge"><title>UserService&#45;&gt;OrderService</title>
<path fill="none" stroke="#f0809f" d="M280.73,-67.8188C270.646,-59.5146 259.061,-49.9741 248.823,-41.5427"/>
<ellipse fill="none" stroke="#f0809f" cx="284.074" cy="-70.5731" rx="4.00002" ry="4.00002"/>
<polygon fill="#f0809f" stroke="#f0809f" points="248.675,-41.4206 243.816,-31.5898 244.815,-38.2421 240.955,-35.0635 240.955,-35.0635 240.955,-35.0635 244.815,-38.2421 238.095,-38.5372 248.675,-41.4206 248.675,-41.4206"/>
</g>
</g>
</svg>
