<?xml version="1.0" encoding="UTF-8" standalone="no"?>
<!DOCTYPE svg PUBLIC "-//W3C//DTD SVG 1.1//EN"
 "http://www.w3.org/Graphics/SVG/1.1/DTD/svg11.dtd">
<!-- Generated by graphviz version 2.38.0 (20140413.2041)
 -->
<!-- Title: models_diagram Pages: 1 -->
<svg width="877pt" height="881pt"
 viewBox="0.00 0.00 876.55 881.00" xmlns="http://www.w3.org/2000/svg" xmlns:xlink="http://www.w3.org/1999/xlink">
<g id="graph0" class="graph" transform="scale(1 1) rotate(0) translate(4 877)">
<title>models_diagram</title>
<polygon fill="none" stroke="none" points="-4,4 -4,-877 872.55,-877 872.55,4 -4,4"/>
<!-- _diagram_info -->
<g id="node1" class="node"><title>_diagram_info</title>
<text text-anchor="start" x="8" y="-851.6" font-family="Times,serif" font-size="13.00">Models diagram</text>
<text text-anchor="start" x="8" y="-838.6" font-family="Times,serif" font-size="13.00">Date: Aug 04 2016 &#45; 16:51</text>
<text text-anchor="start" x="8" y="-825.6" font-family="Times,serif" font-size="13.00">Migration version: 20160803200719</text>
<text text-anchor="start" x="8" y="-812.6" font-family="Times,serif" font-size="13.00">Generated by RailRoady 1.5.1</text>
<text text-anchor="start" x="8" y="-799.6" font-family="Times,serif" font-size="13.00">http://railroady.prestonlee.com</text>
</g>
<!-- Order -->
<g id="node2" class="node"><title>Order</title>
<path fill="none" stroke="black" d="M599.825,-288.5C599.825,-288.5 823.55,-288.5 823.55,-288.5 829.55,-288.5 835.55,-294.5 835.55,-300.5 835.55,-300.5 835.55,-432.5 835.55,-432.5 835.55,-438.5 829.55,-444.5 823.55,-444.5 823.55,-444.5 599.825,-444.5 599.825,-444.5 593.825,-444.5 587.825,-438.5 587.825,-432.5 587.825,-432.5 587.825,-300.5 587.825,-300.5 587.825,-294.5 593.825,-288.5 599.825,-288.5"/>
<text text-anchor="middle" x="711.688" y="-429.3" font-family="Times,serif" font-size="14.00">Order</text>
<polyline fill="none" stroke="black" points="587.825,-422.5 835.55,-422.5 "/>
<text text-anchor="start" x="595.825" y="-407.3" font-family="Times,serif" font-size="14.00">provider_id :integer</text>
<text text-anchor="start" x="595.825" y="-393.3" font-family="Times,serif" font-size="14.00">date :timestamp without time zone</text>
<text text-anchor="start" x="595.825" y="-379.3" font-family="Times,serif" font-size="14.00">description :character varying</text>
<text text-anchor="start" x="595.825" y="-365.3" font-family="Times,serif" font-size="14.00">information :text</text>
<text text-anchor="start" x="595.825" y="-351.3" font-family="Times,serif" font-size="14.00">user_id :integer</text>
<text text-anchor="start" x="595.825" y="-337.3" font-family="Times,serif" font-size="14.00">state_id :integer</text>
<text text-anchor="start" x="595.825" y="-323.3" font-family="Times,serif" font-size="14.00">created_at :timestamp without time zone</text>
<text text-anchor="start" x="595.825" y="-309.3" font-family="Times,serif" font-size="14.00">updated_at :timestamp without time zone</text>
<text text-anchor="start" x="595.825" y="-295.3" font-family="Times,serif" font-size="14.00">id :integer</text>
</g>
<!-- OrderService -->
<g id="node3" class="node"><title>OrderService</title>
<path fill="none" stroke="black" d="M390.825,-0.5C390.825,-0.5 614.55,-0.5 614.55,-0.5 620.55,-0.5 626.55,-6.5 626.55,-12.5 626.55,-12.5 626.55,-88.5 626.55,-88.5 626.55,-94.5 620.55,-100.5 614.55,-100.5 614.55,-100.5 390.825,-100.5 390.825,-100.5 384.825,-100.5 378.825,-94.5 378.825,-88.5 378.825,-88.5 378.825,-12.5 378.825,-12.5 378.825,-6.5 384.825,-0.5 390.825,-0.5"/>
<text text-anchor="middle" x="502.688" y="-85.3" font-family="Times,serif" font-size="14.00">OrderService</text>
<polyline fill="none" stroke="black" points="378.825,-78.5 626.55,-78.5 "/>
<text text-anchor="start" x="386.825" y="-63.3" font-family="Times,serif" font-size="14.00">id :integer</text>
<text text-anchor="start" x="386.825" y="-49.3" font-family="Times,serif" font-size="14.00">order_id :integer</text>
<text text-anchor="start" x="386.825" y="-35.3" font-family="Times,serif" font-size="14.00">user_service_id :integer</text>
<text text-anchor="start" x="386.825" y="-21.3" font-family="Times,serif" font-size="14.00">created_at :timestamp without time zone</text>
<text text-anchor="start" x="386.825" y="-7.3" font-family="Times,serif" font-size="14.00">updated_at :timestamp without time zone</text>
</g>
<!-- Order&#45;&gt;OrderService -->
<g id="edge1" class="edge"><title>Order&#45;&gt;OrderService</title>
<path fill="none" stroke="#6a030e" d="M724.37,-280.187C726.695,-233.893 721.631,-177.934 692.688,-137 678.371,-116.752 658.097,-101.218 636.083,-89.3236"/>
<ellipse fill="none" stroke="#6a030e" cx="724.115" cy="-284.423" rx="4" ry="4"/>
<polygon fill="#6a030e" stroke="#6a030e" points="635.794,-89.1754 628.949,-80.6078 631.345,-86.8937 626.896,-84.612 626.896,-84.612 626.896,-84.612 631.345,-86.8937 624.842,-88.6161 635.794,-89.1754 635.794,-89.1754"/>
</g>
<!-- Survey -->
<g id="node7" class="node"><title>Survey</title>
<path fill="none" stroke="black" d="M447.825,-137.5C447.825,-137.5 671.55,-137.5 671.55,-137.5 677.55,-137.5 683.55,-143.5 683.55,-149.5 683.55,-149.5 683.55,-239.5 683.55,-239.5 683.55,-245.5 677.55,-251.5 671.55,-251.5 671.55,-251.5 447.825,-251.5 447.825,-251.5 441.825,-251.5 435.825,-245.5 435.825,-239.5 435.825,-239.5 435.825,-149.5 435.825,-149.5 435.825,-143.5 441.825,-137.5 447.825,-137.5"/>
<text text-anchor="middle" x="559.688" y="-236.3" font-family="Times,serif" font-size="14.00">Survey</text>
<polyline fill="none" stroke="black" points="435.825,-229.5 683.55,-229.5 "/>
<text text-anchor="start" x="443.825" y="-214.3" font-family="Times,serif" font-size="14.00">id :integer</text>
<text text-anchor="start" x="443.825" y="-200.3" font-family="Times,serif" font-size="14.00">stars :integer</text>
<text text-anchor="start" x="443.825" y="-186.3" font-family="Times,serif" font-size="14.00">comments :text</text>
<text text-anchor="start" x="443.825" y="-172.3" font-family="Times,serif" font-size="14.00">order_id :integer</text>
<text text-anchor="start" x="443.825" y="-158.3" font-family="Times,serif" font-size="14.00">created_at :timestamp without time zone</text>
<text text-anchor="start" x="443.825" y="-144.3" font-family="Times,serif" font-size="14.00">updated_at :timestamp without time zone</text>
</g>
<!-- Order&#45;&gt;Survey -->
<g id="edge3" class="edge"><title>Order&#45;&gt;Survey</title>
<path fill="none" stroke="#83d2c2" d="M637.34,-282.348C629.935,-274.066 622.509,-265.76 615.343,-257.746"/>
<ellipse fill="none" stroke="#83d2c2" cx="640.137" cy="-285.476" rx="4.00002" ry="4.00002"/>
<ellipse fill="#83d2c2" stroke="#83d2c2" cx="612.585" cy="-254.662" rx="4.00002" ry="4.00002"/>
</g>
<!-- UserService -->
<g id="node9" class="node"><title>UserService</title>
<path fill="none" stroke="black" d="M181.825,-144.5C181.825,-144.5 405.55,-144.5 405.55,-144.5 411.55,-144.5 417.55,-150.5 417.55,-156.5 417.55,-156.5 417.55,-232.5 417.55,-232.5 417.55,-238.5 411.55,-244.5 405.55,-244.5 405.55,-244.5 181.825,-244.5 181.825,-244.5 175.825,-244.5 169.825,-238.5 169.825,-232.5 169.825,-232.5 169.825,-156.5 169.825,-156.5 169.825,-150.5 175.825,-144.5 181.825,-144.5"/>
<text text-anchor="middle" x="293.688" y="-229.3" font-family="Times,serif" font-size="14.00">UserService</text>
<polyline fill="none" stroke="black" points="169.825,-222.5 417.55,-222.5 "/>
<text text-anchor="start" x="177.825" y="-207.3" font-family="Times,serif" font-size="14.00">id :integer</text>
<text text-anchor="start" x="177.825" y="-193.3" font-family="Times,serif" font-size="14.00">service_id :integer</text>
<text text-anchor="start" x="177.825" y="-179.3" font-family="Times,serif" font-size="14.00">created_at :timestamp without time zone</text>
<text text-anchor="start" x="177.825" y="-165.3" font-family="Times,serif" font-size="14.00">updated_at :timestamp without time zone</text>
<text text-anchor="start" x="177.825" y="-151.3" font-family="Times,serif" font-size="14.00">user_id :integer</text>
</g>
<!-- Order&#45;&gt;UserService -->
<g id="edge2" class="edge"><title>Order&#45;&gt;UserService</title>
<path fill="none" stroke="#f58cd0" d="M578.062,-288.004C512.191,-263.202 489.687,-272.677 426.688,-252 422.732,-250.702 418.731,-249.335 414.706,-247.913"/>
<polygon fill="#f58cd0" stroke="#f58cd0" points="578.335,-288.11 586.021,-295.931 582.994,-289.924 587.653,-291.737 587.653,-291.737 587.653,-291.737 582.994,-289.924 589.286,-287.544 578.335,-288.11 578.335,-288.11"/>
<polygon fill="#f58cd0" stroke="#f58cd0" points="414.686,-247.905 406.814,-240.271 409.985,-246.204 405.283,-244.502 405.283,-244.502 405.283,-244.502 409.985,-246.204 403.752,-248.734 414.686,-247.905 414.686,-247.905"/>
</g>
<!-- Schedule -->
<g id="node4" class="node"><title>Schedule</title>
<path fill="none" stroke="black" d="M333.825,-309.5C333.825,-309.5 557.55,-309.5 557.55,-309.5 563.55,-309.5 569.55,-315.5 569.55,-321.5 569.55,-321.5 569.55,-411.5 569.55,-411.5 569.55,-417.5 563.55,-423.5 557.55,-423.5 557.55,-423.5 333.825,-423.5 333.825,-423.5 327.825,-423.5 321.825,-417.5 321.825,-411.5 321.825,-411.5 321.825,-321.5 321.825,-321.5 321.825,-315.5 327.825,-309.5 333.825,-309.5"/>
<text text-anchor="middle" x="445.688" y="-408.3" font-family="Times,serif" font-size="14.00">Schedule</text>
<polyline fill="none" stroke="black" points="321.825,-401.5 569.55,-401.5 "/>
<text text-anchor="start" x="329.825" y="-386.3" font-family="Times,serif" font-size="14.00">id :integer</text>
<text text-anchor="start" x="329.825" y="-372.3" font-family="Times,serif" font-size="14.00">starttime :timestamp without time zone</text>
<text text-anchor="start" x="329.825" y="-358.3" font-family="Times,serif" font-size="14.00">endtime :timestamp without time zone</text>
<text text-anchor="start" x="329.825" y="-344.3" font-family="Times,serif" font-size="14.00">created_at :timestamp without time zone</text>
<text text-anchor="start" x="329.825" y="-330.3" font-family="Times,serif" font-size="14.00">updated_at :timestamp without time zone</text>
<text text-anchor="start" x="329.825" y="-316.3" font-family="Times,serif" font-size="14.00">user_id :integer</text>
</g>
<!-- Service -->
<g id="node5" class="node"><title>Service</title>
<path fill="none" stroke="black" d="M237.825,-786.5C237.825,-786.5 461.55,-786.5 461.55,-786.5 467.55,-786.5 473.55,-792.5 473.55,-798.5 473.55,-798.5 473.55,-860.5 473.55,-860.5 473.55,-866.5 467.55,-872.5 461.55,-872.5 461.55,-872.5 237.825,-872.5 237.825,-872.5 231.825,-872.5 225.825,-866.5 225.825,-860.5 225.825,-860.5 225.825,-798.5 225.825,-798.5 225.825,-792.5 231.825,-786.5 237.825,-786.5"/>
<text text-anchor="middle" x="349.688" y="-857.3" font-family="Times,serif" font-size="14.00">Service</text>
<polyline fill="none" stroke="black" points="225.825,-850.5 473.55,-850.5 "/>
<text text-anchor="start" x="233.825" y="-835.3" font-family="Times,serif" font-size="14.00">id :integer</text>
<text text-anchor="start" x="233.825" y="-821.3" font-family="Times,serif" font-size="14.00">name :character varying</text>
<text text-anchor="start" x="233.825" y="-807.3" font-family="Times,serif" font-size="14.00">created_at :timestamp without time zone</text>
<text text-anchor="start" x="233.825" y="-793.3" font-family="Times,serif" font-size="14.00">updated_at :timestamp without time zone</text>
</g>
<!-- User -->
<g id="node8" class="node"><title>User</title>
<path fill="none" stroke="black" d="M296.053,-481.5C296.053,-481.5 591.323,-481.5 591.323,-481.5 597.323,-481.5 603.323,-487.5 603.323,-493.5 603.323,-493.5 603.323,-737.5 603.323,-737.5 603.323,-743.5 597.323,-749.5 591.323,-749.5 591.323,-749.5 296.053,-749.5 296.053,-749.5 290.053,-749.5 284.053,-743.5 284.053,-737.5 284.053,-737.5 284.053,-493.5 284.053,-493.5 284.053,-487.5 290.053,-481.5 296.053,-481.5"/>
<text text-anchor="middle" x="443.688" y="-734.3" font-family="Times,serif" font-size="14.00">User</text>
<polyline fill="none" stroke="black" points="284.053,-727.5 603.323,-727.5 "/>
<text text-anchor="start" x="292.053" y="-712.3" font-family="Times,serif" font-size="14.00">is_provider :boolean</text>
<text text-anchor="start" x="292.053" y="-698.3" font-family="Times,serif" font-size="14.00">email :character varying</text>
<text text-anchor="start" x="292.053" y="-684.3" font-family="Times,serif" font-size="14.00">encrypted_password :character varying</text>
<text text-anchor="start" x="292.053" y="-670.3" font-family="Times,serif" font-size="14.00">reset_password_token :character varying</text>
<text text-anchor="start" x="292.053" y="-656.3" font-family="Times,serif" font-size="14.00">reset_password_sent_at :timestamp without time zone</text>
<text text-anchor="start" x="292.053" y="-642.3" font-family="Times,serif" font-size="14.00">remember_created_at :timestamp without time zone</text>
<text text-anchor="start" x="292.053" y="-628.3" font-family="Times,serif" font-size="14.00">sign_in_count :integer</text>
<text text-anchor="start" x="292.053" y="-614.3" font-family="Times,serif" font-size="14.00">current_sign_in_at :timestamp without time zone</text>
<text text-anchor="start" x="292.053" y="-600.3" font-family="Times,serif" font-size="14.00">last_sign_in_at :timestamp without time zone</text>
<text text-anchor="start" x="292.053" y="-586.3" font-family="Times,serif" font-size="14.00">current_sign_in_ip :inet</text>
<text text-anchor="start" x="292.053" y="-572.3" font-family="Times,serif" font-size="14.00">last_sign_in_ip :inet</text>
<text text-anchor="start" x="292.053" y="-558.3" font-family="Times,serif" font-size="14.00">created_at :timestamp without time zone</text>
<text text-anchor="start" x="292.053" y="-544.3" font-family="Times,serif" font-size="14.00">updated_at :timestamp without time zone</text>
<text text-anchor="start" x="292.053" y="-530.3" font-family="Times,serif" font-size="14.00">name :character varying</text>
<text text-anchor="start" x="292.053" y="-516.3" font-family="Times,serif" font-size="14.00">address :text</text>
<text text-anchor="start" x="292.053" y="-502.3" font-family="Times,serif" font-size="14.00">phone :character varying</text>
<text text-anchor="start" x="292.053" y="-488.3" font-family="Times,serif" font-size="14.00">id :integer</text>
</g>
<!-- Service&#45;&gt;User -->
<g id="edge5" class="edge"><title>Service&#45;&gt;User</title>
<path fill="none" stroke="#c3b07b" d="M372.506,-777.038C375.043,-771.316 377.709,-765.302 380.46,-759.098"/>
<polygon fill="#c3b07b" stroke="#c3b07b" points="372.425,-777.22 364.258,-784.538 370.398,-781.791 368.372,-786.362 368.372,-786.362 368.372,-786.362 370.398,-781.791 372.485,-788.186 372.425,-777.22 372.425,-777.22"/>
<polygon fill="#c3b07b" stroke="#c3b07b" points="380.493,-759.025 388.66,-751.707 382.519,-754.454 384.546,-749.883 384.546,-749.883 384.546,-749.883 382.519,-754.454 380.432,-748.059 380.493,-759.025 380.493,-759.025"/>
</g>
<!-- Service&#45;&gt;UserService -->
<g id="edge4" class="edge"><title>Service&#45;&gt;UserService</title>
<path fill="none" stroke="#13eb51" d="M293.155,-780.159C285.624,-770.962 279.019,-760.803 274.688,-750 206.888,-580.89 249.65,-358.967 276.607,-254.594"/>
<ellipse fill="none" stroke="#13eb51" cx="295.89" cy="-783.337" rx="4.00002" ry="4.00002"/>
<polygon fill="#13eb51" stroke="#13eb51" points="276.622,-254.538 283.514,-246.01 277.892,-249.702 279.162,-244.866 279.162,-244.866 279.162,-244.866 277.892,-249.702 274.81,-243.723 276.622,-254.538 276.622,-254.538"/>
</g>
<!-- State -->
<g id="node6" class="node"><title>State</title>
<path fill="none" stroke="black" d="M632.825,-565.5C632.825,-565.5 856.55,-565.5 856.55,-565.5 862.55,-565.5 868.55,-571.5 868.55,-577.5 868.55,-577.5 868.55,-653.5 868.55,-653.5 868.55,-659.5 862.55,-665.5 856.55,-665.5 856.55,-665.5 632.825,-665.5 632.825,-665.5 626.825,-665.5 620.825,-659.5 620.825,-653.5 620.825,-653.5 620.825,-577.5 620.825,-577.5 620.825,-571.5 626.825,-565.5 632.825,-565.5"/>
<text text-anchor="middle" x="744.688" y="-650.3" font-family="Times,serif" font-size="14.00">State</text>
<polyline fill="none" stroke="black" points="620.825,-643.5 868.55,-643.5 "/>
<text text-anchor="start" x="628.825" y="-628.3" font-family="Times,serif" font-size="14.00">id :integer</text>
<text text-anchor="start" x="628.825" y="-614.3" font-family="Times,serif" font-size="14.00">name :character varying</text>
<text text-anchor="start" x="628.825" y="-600.3" font-family="Times,serif" font-size="14.00">description :text</text>
<text text-anchor="start" x="628.825" y="-586.3" font-family="Times,serif" font-size="14.00">created_at :timestamp without time zone</text>
<text text-anchor="start" x="628.825" y="-572.3" font-family="Times,serif" font-size="14.00">updated_at :timestamp without time zone</text>
</g>
<!-- State&#45;&gt;Order -->
<g id="edge6" class="edge"><title>State&#45;&gt;Order</title>
<path fill="none" stroke="#7da1e4" d="M737.02,-557.11C732.954,-526.674 727.873,-488.642 723.331,-454.644"/>
<ellipse fill="none" stroke="#7da1e4" cx="737.599" cy="-561.441" rx="4.00001" ry="4.00001"/>
<polygon fill="#7da1e4" stroke="#7da1e4" points="723.327,-454.618 726.463,-444.11 722.665,-449.662 722.003,-444.706 722.003,-444.706 722.003,-444.706 722.665,-449.662 717.542,-445.302 723.327,-454.618 723.327,-454.618"/>
</g>
<!-- User&#45;&gt;Order -->
<g id="edge9" class="edge"><title>User&#45;&gt;Order</title>
<path fill="none" stroke="#c58a30" d="M594.321,-475.67C603.24,-467.45 612.059,-459.322 620.617,-451.435"/>
<ellipse fill="none" stroke="#c58a30" cx="591.219" cy="-478.529" rx="4.00002" ry="4.00002"/>
<polygon fill="#c58a30" stroke="#c58a30" points="620.713,-451.346 631.116,-447.878 624.39,-447.958 628.066,-444.569 628.066,-444.569 628.066,-444.569 624.39,-447.958 625.017,-441.26 620.713,-451.346 620.713,-451.346"/>
</g>
<!-- User&#45;&gt;Schedule -->
<g id="edge7" class="edge"><title>User&#45;&gt;Schedule</title>
<path fill="none" stroke="#9b7cb3" d="M444.832,-473.184C444.948,-458.852 445.061,-444.848 445.166,-431.964"/>
<ellipse fill="none" stroke="#9b7cb3" cx="444.799" cy="-477.24" rx="4" ry="4"/>
<ellipse fill="#9b7cb3" stroke="#9b7cb3" cx="445.201" cy="-427.667" rx="4" ry="4"/>
</g>
<!-- User&#45;&gt;UserService -->
<g id="edge8" class="edge"><title>User&#45;&gt;UserService</title>
<path fill="none" stroke="#3946a6" d="M326.094,-474.062C321.003,-464.54 316.463,-454.821 312.688,-445 288.942,-383.227 286.729,-306.618 288.831,-254.707"/>
<ellipse fill="none" stroke="#3946a6" cx="328.157" cy="-477.801" rx="4.00002" ry="4.00002"/>
<polygon fill="#3946a6" stroke="#3946a6" points="288.833,-254.655 293.799,-244.878 289.068,-249.661 289.304,-244.666 289.304,-244.666 289.304,-244.666 289.068,-249.661 284.809,-244.455 288.833,-254.655 288.833,-254.655"/>
</g>
<!-- UserService&#45;&gt;OrderService -->
<g id="edge10" class="edge"><title>UserService&#45;&gt;OrderService</title>
<path fill="none" stroke="#eecb37" d="M372.822,-139.734C388.943,-128.781 405.921,-117.246 422.092,-106.259"/>
<ellipse fill="none" stroke="#eecb37" cx="369.215" cy="-142.185" rx="4.00002" ry="4.00002"/>
<polygon fill="#eecb37" stroke="#eecb37" points="422.195,-106.189 432.995,-104.291 426.331,-103.379 430.466,-100.569 430.466,-100.569 430.466,-100.569 426.331,-103.379 427.937,-96.847 422.195,-106.189 422.195,-106.189"/>
</g>
</g>
</svg>
