<?xml version="1.0" encoding="UTF-8" standalone="no"?>
<!DOCTYPE svg PUBLIC "-//W3C//DTD SVG 1.1//EN"
 "http://www.w3.org/Graphics/SVG/1.1/DTD/svg11.dtd">
<!-- Generated by graphviz version 2.38.0 (20140413.2041)
 -->
<!-- Title: models_diagram Pages: 1 -->
<svg width="702pt" height="1032pt"
 viewBox="0.00 0.00 701.74 1032.00" xmlns="http://www.w3.org/2000/svg" xmlns:xlink="http://www.w3.org/1999/xlink">
<g id="graph0" class="graph" transform="scale(1 1) rotate(0) translate(4 1028)">
<title>models_diagram</title>
<polygon fill="none" stroke="none" points="-4,4 -4,-1028 697.737,-1028 697.737,4 -4,4"/>
<!-- _diagram_info -->
<g id="node1" class="node"><title>_diagram_info</title>
<text text-anchor="start" x="39.4245" y="-1002.6" font-family="Times,serif" font-size="13.00">Models diagram</text>
<text text-anchor="start" x="39.4245" y="-989.6" font-family="Times,serif" font-size="13.00">Date: Jul 26 2016 &#45; 19:02</text>
<text text-anchor="start" x="39.4245" y="-976.6" font-family="Times,serif" font-size="13.00">Migration version: 20160726215116</text>
<text text-anchor="start" x="39.4245" y="-963.6" font-family="Times,serif" font-size="13.00">Generated by RailRoady 1.5.1</text>
<text text-anchor="start" x="39.4245" y="-950.6" font-family="Times,serif" font-size="13.00">http://railroady.prestonlee.com</text>
</g>
<!-- Order -->
<g id="node2" class="node"><title>Order</title>
<path fill="none" stroke="black" d="M116.012,-288.5C116.012,-288.5 339.737,-288.5 339.737,-288.5 345.737,-288.5 351.737,-294.5 351.737,-300.5 351.737,-300.5 351.737,-432.5 351.737,-432.5 351.737,-438.5 345.737,-444.5 339.737,-444.5 339.737,-444.5 116.012,-444.5 116.012,-444.5 110.012,-444.5 104.012,-438.5 104.012,-432.5 104.012,-432.5 104.012,-300.5 104.012,-300.5 104.012,-294.5 110.012,-288.5 116.012,-288.5"/>
<text text-anchor="middle" x="227.874" y="-429.3" font-family="Times,serif" font-size="14.00">Order</text>
<polyline fill="none" stroke="black" points="104.012,-422.5 351.737,-422.5 "/>
<text text-anchor="start" x="112.012" y="-407.3" font-family="Times,serif" font-size="14.00">updated_at :timestamp without time zone</text>
<text text-anchor="start" x="112.012" y="-393.3" font-family="Times,serif" font-size="14.00">date :timestamp without time zone</text>
<text text-anchor="start" x="112.012" y="-379.3" font-family="Times,serif" font-size="14.00">description :character varying</text>
<text text-anchor="start" x="112.012" y="-365.3" font-family="Times,serif" font-size="14.00">information :text</text>
<text text-anchor="start" x="112.012" y="-351.3" font-family="Times,serif" font-size="14.00">user_id :integer</text>
<text text-anchor="start" x="112.012" y="-337.3" font-family="Times,serif" font-size="14.00">state_id :integer</text>
<text text-anchor="start" x="112.012" y="-323.3" font-family="Times,serif" font-size="14.00">slot_id :integer</text>
<text text-anchor="start" x="112.012" y="-309.3" font-family="Times,serif" font-size="14.00">created_at :timestamp without time zone</text>
<text text-anchor="start" x="112.012" y="-295.3" font-family="Times,serif" font-size="14.00">id :integer</text>
</g>
<!-- OrderService -->
<g id="node3" class="node"><title>OrderService</title>
<path fill="none" stroke="black" d="M249.012,-0.5C249.012,-0.5 472.737,-0.5 472.737,-0.5 478.737,-0.5 484.737,-6.5 484.737,-12.5 484.737,-12.5 484.737,-88.5 484.737,-88.5 484.737,-94.5 478.737,-100.5 472.737,-100.5 472.737,-100.5 249.012,-100.5 249.012,-100.5 243.012,-100.5 237.012,-94.5 237.012,-88.5 237.012,-88.5 237.012,-12.5 237.012,-12.5 237.012,-6.5 243.012,-0.5 249.012,-0.5"/>
<text text-anchor="middle" x="360.874" y="-85.3" font-family="Times,serif" font-size="14.00">OrderService</text>
<polyline fill="none" stroke="black" points="237.012,-78.5 484.737,-78.5 "/>
<text text-anchor="start" x="245.012" y="-63.3" font-family="Times,serif" font-size="14.00">id :integer</text>
<text text-anchor="start" x="245.012" y="-49.3" font-family="Times,serif" font-size="14.00">order_id :integer</text>
<text text-anchor="start" x="245.012" y="-35.3" font-family="Times,serif" font-size="14.00">user_service_id :integer</text>
<text text-anchor="start" x="245.012" y="-21.3" font-family="Times,serif" font-size="14.00">created_at :timestamp without time zone</text>
<text text-anchor="start" x="245.012" y="-7.3" font-family="Times,serif" font-size="14.00">updated_at :timestamp without time zone</text>
</g>
<!-- Order&#45;&gt;OrderService -->
<g id="edge1" class="edge"><title>Order&#45;&gt;OrderService</title>
<path fill="none" stroke="#2e636d" d="M176.476,-280.732C156.023,-235.226 143.168,-179.849 170.874,-137 184.659,-115.681 205.165,-99.6256 227.673,-87.5495"/>
<ellipse fill="none" stroke="#2e636d" cx="178.273" cy="-284.608" rx="4.00002" ry="4.00002"/>
<polygon fill="#2e636d" stroke="#2e636d" points="227.815,-87.4773 238.769,-86.9598 232.273,-85.2125 236.73,-82.9478 236.73,-82.9478 236.73,-82.9478 232.273,-85.2125 234.692,-78.9359 227.815,-87.4773 227.815,-87.4773"/>
</g>
<!-- Survey -->
<g id="node7" class="node"><title>Survey</title>
<path fill="none" stroke="black" d="M192.012,-137.5C192.012,-137.5 415.737,-137.5 415.737,-137.5 421.737,-137.5 427.737,-143.5 427.737,-149.5 427.737,-149.5 427.737,-239.5 427.737,-239.5 427.737,-245.5 421.737,-251.5 415.737,-251.5 415.737,-251.5 192.012,-251.5 192.012,-251.5 186.012,-251.5 180.012,-245.5 180.012,-239.5 180.012,-239.5 180.012,-149.5 180.012,-149.5 180.012,-143.5 186.012,-137.5 192.012,-137.5"/>
<text text-anchor="middle" x="303.874" y="-236.3" font-family="Times,serif" font-size="14.00">Survey</text>
<polyline fill="none" stroke="black" points="180.012,-229.5 427.737,-229.5 "/>
<text text-anchor="start" x="188.012" y="-214.3" font-family="Times,serif" font-size="14.00">id :integer</text>
<text text-anchor="start" x="188.012" y="-200.3" font-family="Times,serif" font-size="14.00">stars :integer</text>
<text text-anchor="start" x="188.012" y="-186.3" font-family="Times,serif" font-size="14.00">comments :text</text>
<text text-anchor="start" x="188.012" y="-172.3" font-family="Times,serif" font-size="14.00">order_id :integer</text>
<text text-anchor="start" x="188.012" y="-158.3" font-family="Times,serif" font-size="14.00">created_at :timestamp without time zone</text>
<text text-anchor="start" x="188.012" y="-144.3" font-family="Times,serif" font-size="14.00">updated_at :timestamp without time zone</text>
</g>
<!-- Order&#45;&gt;Survey -->
<g id="edge3" class="edge"><title>Order&#45;&gt;Survey</title>
<path fill="none" stroke="#b8dbdf" d="M265.7,-280.891C268.953,-273.613 272.208,-266.332 275.369,-259.261"/>
<ellipse fill="none" stroke="#b8dbdf" cx="263.949" cy="-284.807" rx="4.00002" ry="4.00002"/>
<ellipse fill="#b8dbdf" stroke="#b8dbdf" cx="277.126" cy="-255.331" rx="4.00002" ry="4.00002"/>
</g>
<!-- UserService -->
<g id="node9" class="node"><title>UserService</title>
<path fill="none" stroke="black" d="M458.012,-144.5C458.012,-144.5 681.737,-144.5 681.737,-144.5 687.737,-144.5 693.737,-150.5 693.737,-156.5 693.737,-156.5 693.737,-232.5 693.737,-232.5 693.737,-238.5 687.737,-244.5 681.737,-244.5 681.737,-244.5 458.012,-244.5 458.012,-244.5 452.012,-244.5 446.012,-238.5 446.012,-232.5 446.012,-232.5 446.012,-156.5 446.012,-156.5 446.012,-150.5 452.012,-144.5 458.012,-144.5"/>
<text text-anchor="middle" x="569.874" y="-229.3" font-family="Times,serif" font-size="14.00">UserService</text>
<polyline fill="none" stroke="black" points="446.012,-222.5 693.737,-222.5 "/>
<text text-anchor="start" x="454.012" y="-207.3" font-family="Times,serif" font-size="14.00">id :integer</text>
<text text-anchor="start" x="454.012" y="-193.3" font-family="Times,serif" font-size="14.00">user_id :integer</text>
<text text-anchor="start" x="454.012" y="-179.3" font-family="Times,serif" font-size="14.00">service_id :integer</text>
<text text-anchor="start" x="454.012" y="-165.3" font-family="Times,serif" font-size="14.00">created_at :timestamp without time zone</text>
<text text-anchor="start" x="454.012" y="-151.3" font-family="Times,serif" font-size="14.00">updated_at :timestamp without time zone</text>
</g>
<!-- Order&#45;&gt;UserService -->
<g id="edge2" class="edge"><title>Order&#45;&gt;UserService</title>
<path fill="none" stroke="#f3ca20" d="M361.096,-299.279C394.624,-282.613 430.192,-264.933 462.287,-248.979"/>
<polygon fill="#f3ca20" stroke="#f3ca20" points="360.782,-299.435 349.825,-299.856 356.305,-301.66 351.828,-303.886 351.828,-303.886 351.828,-303.886 356.305,-301.66 353.831,-307.915 360.782,-299.435 360.782,-299.435"/>
<polygon fill="#f3ca20" stroke="#f3ca20" points="462.288,-248.979 473.246,-248.557 466.765,-246.753 471.243,-244.527 471.243,-244.527 471.243,-244.527 466.765,-246.753 469.24,-240.498 462.288,-248.979 462.288,-248.979"/>
</g>
<!-- Service -->
<g id="node4" class="node"><title>Service</title>
<path fill="none" stroke="black" d="M268.012,-937.5C268.012,-937.5 491.737,-937.5 491.737,-937.5 497.737,-937.5 503.737,-943.5 503.737,-949.5 503.737,-949.5 503.737,-1011.5 503.737,-1011.5 503.737,-1017.5 497.737,-1023.5 491.737,-1023.5 491.737,-1023.5 268.012,-1023.5 268.012,-1023.5 262.012,-1023.5 256.012,-1017.5 256.012,-1011.5 256.012,-1011.5 256.012,-949.5 256.012,-949.5 256.012,-943.5 262.012,-937.5 268.012,-937.5"/>
<text text-anchor="middle" x="379.874" y="-1008.3" font-family="Times,serif" font-size="14.00">Service</text>
<polyline fill="none" stroke="black" points="256.012,-1001.5 503.737,-1001.5 "/>
<text text-anchor="start" x="264.012" y="-986.3" font-family="Times,serif" font-size="14.00">id :integer</text>
<text text-anchor="start" x="264.012" y="-972.3" font-family="Times,serif" font-size="14.00">name :character varying</text>
<text text-anchor="start" x="264.012" y="-958.3" font-family="Times,serif" font-size="14.00">created_at :timestamp without time zone</text>
<text text-anchor="start" x="264.012" y="-944.3" font-family="Times,serif" font-size="14.00">updated_at :timestamp without time zone</text>
</g>
<!-- User -->
<g id="node8" class="node"><title>User</title>
<path fill="none" stroke="black" d="M118.239,-632.5C118.239,-632.5 413.509,-632.5 413.509,-632.5 419.509,-632.5 425.509,-638.5 425.509,-644.5 425.509,-644.5 425.509,-888.5 425.509,-888.5 425.509,-894.5 419.509,-900.5 413.509,-900.5 413.509,-900.5 118.239,-900.5 118.239,-900.5 112.239,-900.5 106.239,-894.5 106.239,-888.5 106.239,-888.5 106.239,-644.5 106.239,-644.5 106.239,-638.5 112.239,-632.5 118.239,-632.5"/>
<text text-anchor="middle" x="265.874" y="-885.3" font-family="Times,serif" font-size="14.00">User</text>
<polyline fill="none" stroke="black" points="106.239,-878.5 425.509,-878.5 "/>
<text text-anchor="start" x="114.239" y="-863.3" font-family="Times,serif" font-size="14.00">is_provider :boolean</text>
<text text-anchor="start" x="114.239" y="-849.3" font-family="Times,serif" font-size="14.00">email :character varying</text>
<text text-anchor="start" x="114.239" y="-835.3" font-family="Times,serif" font-size="14.00">encrypted_password :character varying</text>
<text text-anchor="start" x="114.239" y="-821.3" font-family="Times,serif" font-size="14.00">reset_password_token :character varying</text>
<text text-anchor="start" x="114.239" y="-807.3" font-family="Times,serif" font-size="14.00">reset_password_sent_at :timestamp without time zone</text>
<text text-anchor="start" x="114.239" y="-793.3" font-family="Times,serif" font-size="14.00">remember_created_at :timestamp without time zone</text>
<text text-anchor="start" x="114.239" y="-779.3" font-family="Times,serif" font-size="14.00">sign_in_count :integer</text>
<text text-anchor="start" x="114.239" y="-765.3" font-family="Times,serif" font-size="14.00">current_sign_in_at :timestamp without time zone</text>
<text text-anchor="start" x="114.239" y="-751.3" font-family="Times,serif" font-size="14.00">last_sign_in_at :timestamp without time zone</text>
<text text-anchor="start" x="114.239" y="-737.3" font-family="Times,serif" font-size="14.00">current_sign_in_ip :inet</text>
<text text-anchor="start" x="114.239" y="-723.3" font-family="Times,serif" font-size="14.00">last_sign_in_ip :inet</text>
<text text-anchor="start" x="114.239" y="-709.3" font-family="Times,serif" font-size="14.00">created_at :timestamp without time zone</text>
<text text-anchor="start" x="114.239" y="-695.3" font-family="Times,serif" font-size="14.00">updated_at :timestamp without time zone</text>
<text text-anchor="start" x="114.239" y="-681.3" font-family="Times,serif" font-size="14.00">name :character varying</text>
<text text-anchor="start" x="114.239" y="-667.3" font-family="Times,serif" font-size="14.00">address :text</text>
<text text-anchor="start" x="114.239" y="-653.3" font-family="Times,serif" font-size="14.00">phone :integer</text>
<text text-anchor="start" x="114.239" y="-639.3" font-family="Times,serif" font-size="14.00">id :integer</text>
</g>
<!-- Service&#45;&gt;User -->
<g id="edge5" class="edge"><title>Service&#45;&gt;User</title>
<path fill="none" stroke="#f2086a" d="M352.349,-928.313C349.172,-922.404 345.826,-916.182 342.371,-909.758"/>
<polygon fill="#f2086a" stroke="#f2086a" points="352.479,-928.555 353.252,-939.493 354.847,-932.958 357.215,-937.362 357.215,-937.362 357.215,-937.362 354.847,-932.958 361.179,-935.231 352.479,-928.555 352.479,-928.555"/>
<polygon fill="#f2086a" stroke="#f2086a" points="342.335,-909.691 341.562,-898.752 339.967,-905.287 337.599,-900.883 337.599,-900.883 337.599,-900.883 339.967,-905.287 333.636,-903.014 342.335,-909.691 342.335,-909.691"/>
</g>
<!-- Service&#45;&gt;UserService -->
<g id="edge4" class="edge"><title>Service&#45;&gt;UserService</title>
<path fill="none" stroke="#e5d047" d="M416.281,-930.37C422.783,-920.823 429.265,-910.75 434.874,-901 509.349,-771.555 537.086,-740.215 575.874,-596 611.465,-463.672 604.436,-424.254 589.874,-288 588.711,-277.118 586.799,-265.637 584.607,-254.604"/>
<ellipse fill="none" stroke="#e5d047" cx="413.828" cy="-933.925" rx="4.00002" ry="4.00002"/>
<polygon fill="#e5d047" stroke="#e5d047" points="584.569,-254.419 586.934,-243.711 583.549,-249.524 582.529,-244.629 582.529,-244.629 582.529,-244.629 583.549,-249.524 578.123,-245.547 584.569,-254.419 584.569,-254.419"/>
</g>
<!-- Slot -->
<g id="node5" class="node"><title>Slot</title>
<path fill="none" stroke="black" d="M40.0119,-481.5C40.0119,-481.5 263.737,-481.5 263.737,-481.5 269.737,-481.5 275.737,-487.5 275.737,-493.5 275.737,-493.5 275.737,-583.5 275.737,-583.5 275.737,-589.5 269.737,-595.5 263.737,-595.5 263.737,-595.5 40.0119,-595.5 40.0119,-595.5 34.0119,-595.5 28.0119,-589.5 28.0119,-583.5 28.0119,-583.5 28.0119,-493.5 28.0119,-493.5 28.0119,-487.5 34.0119,-481.5 40.0119,-481.5"/>
<text text-anchor="middle" x="151.874" y="-580.3" font-family="Times,serif" font-size="14.00">Slot</text>
<polyline fill="none" stroke="black" points="28.0119,-573.5 275.737,-573.5 "/>
<text text-anchor="start" x="36.0119" y="-558.3" font-family="Times,serif" font-size="14.00">id :integer</text>
<text text-anchor="start" x="36.0119" y="-544.3" font-family="Times,serif" font-size="14.00">starttime :timestamp without time zone</text>
<text text-anchor="start" x="36.0119" y="-530.3" font-family="Times,serif" font-size="14.00">endtime :timestamp without time zone</text>
<text text-anchor="start" x="36.0119" y="-516.3" font-family="Times,serif" font-size="14.00">user_id :integer</text>
<text text-anchor="start" x="36.0119" y="-502.3" font-family="Times,serif" font-size="14.00">created_at :timestamp without time zone</text>
<text text-anchor="start" x="36.0119" y="-488.3" font-family="Times,serif" font-size="14.00">updated_at :timestamp without time zone</text>
</g>
<!-- Slot&#45;&gt;Order -->
<g id="edge6" class="edge"><title>Slot&#45;&gt;Order</title>
<path fill="none" stroke="#d77f7f" d="M180.354,-473.796C183.29,-467.228 186.307,-460.479 189.329,-453.72"/>
<ellipse fill="none" stroke="#d77f7f" cx="178.603" cy="-477.713" rx="4.00002" ry="4.00002"/>
<polygon fill="#d77f7f" stroke="#d77f7f" points="189.364,-453.642 197.553,-446.349 191.404,-449.077 193.445,-444.513 193.445,-444.513 193.445,-444.513 191.404,-449.077 189.337,-442.676 189.364,-453.642 189.364,-453.642"/>
</g>
<!-- State -->
<g id="node6" class="node"><title>State</title>
<path fill="none" stroke="black" d="M306.012,-488.5C306.012,-488.5 529.737,-488.5 529.737,-488.5 535.737,-488.5 541.737,-494.5 541.737,-500.5 541.737,-500.5 541.737,-576.5 541.737,-576.5 541.737,-582.5 535.737,-588.5 529.737,-588.5 529.737,-588.5 306.012,-588.5 306.012,-588.5 300.012,-588.5 294.012,-582.5 294.012,-576.5 294.012,-576.5 294.012,-500.5 294.012,-500.5 294.012,-494.5 300.012,-488.5 306.012,-488.5"/>
<text text-anchor="middle" x="417.874" y="-573.3" font-family="Times,serif" font-size="14.00">State</text>
<polyline fill="none" stroke="black" points="294.012,-566.5 541.737,-566.5 "/>
<text text-anchor="start" x="302.012" y="-551.3" font-family="Times,serif" font-size="14.00">id :integer</text>
<text text-anchor="start" x="302.012" y="-537.3" font-family="Times,serif" font-size="14.00">name :character varying</text>
<text text-anchor="start" x="302.012" y="-523.3" font-family="Times,serif" font-size="14.00">description :text</text>
<text text-anchor="start" x="302.012" y="-509.3" font-family="Times,serif" font-size="14.00">created_at :timestamp without time zone</text>
<text text-anchor="start" x="302.012" y="-495.3" font-family="Times,serif" font-size="14.00">updated_at :timestamp without time zone</text>
</g>
<!-- State&#45;&gt;Order -->
<g id="edge7" class="edge"><title>State&#45;&gt;Order</title>
<path fill="none" stroke="#ecb36b" d="M356.764,-482.823C345.635,-472.865 333.792,-462.268 321.967,-451.688"/>
<ellipse fill="none" stroke="#ecb36b" cx="359.937" cy="-485.662" rx="4.00002" ry="4.00002"/>
<polygon fill="#ecb36b" stroke="#ecb36b" points="321.659,-451.413 317.208,-441.392 317.933,-448.079 314.207,-444.745 314.207,-444.745 314.207,-444.745 317.933,-448.079 311.206,-448.099 321.659,-451.413 321.659,-451.413"/>
</g>
<!-- User&#45;&gt;Order -->
<g id="edge10" class="edge"><title>User&#45;&gt;Order</title>
<path fill="none" stroke="#736fa1" d="M99.6781,-684.634C67.2164,-660.791 37.5025,-631.376 18.8742,-596 -4.93994,-550.776 -7.25674,-524.926 18.8742,-481 36.4543,-451.448 64.7142,-429.111 94.8449,-412.424"/>
<ellipse fill="none" stroke="#736fa1" cx="102.957" cy="-686.993" rx="4.00002" ry="4.00002"/>
<polygon fill="#736fa1" stroke="#736fa1" points="94.9883,-412.347 105.93,-411.617 99.4011,-409.996 103.814,-407.645 103.814,-407.645 103.814,-407.645 99.4011,-409.996 101.698,-403.674 94.9883,-412.347 94.9883,-412.347"/>
</g>
<!-- User&#45;&gt;Slot -->
<g id="edge9" class="edge"><title>User&#45;&gt;Slot</title>
<path fill="none" stroke="#efacb2" d="M195.114,-625.221C191.622,-618.298 188.203,-611.52 184.914,-605"/>
<ellipse fill="none" stroke="#efacb2" cx="196.934" cy="-628.83" rx="4.00002" ry="4.00002"/>
<polygon fill="#efacb2" stroke="#efacb2" points="184.699,-604.574 184.213,-593.619 182.447,-600.11 180.195,-595.645 180.195,-595.645 180.195,-595.645 182.447,-600.11 176.178,-597.672 184.699,-604.574 184.699,-604.574"/>
</g>
<!-- User&#45;&gt;UserService -->
<g id="edge8" class="edge"><title>User&#45;&gt;UserService</title>
<path fill="none" stroke="#b054f9" d="M432.94,-702.062C478.874,-676.264 523.528,-641.534 550.874,-596 584.372,-540.222 579.079,-352.346 573.786,-255.037"/>
<ellipse fill="none" stroke="#b054f9" cx="429.361" cy="-704.034" rx="4.00002" ry="4.00002"/>
<polygon fill="#b054f9" stroke="#b054f9" points="573.77,-254.756 577.702,-244.519 573.489,-249.764 573.209,-244.772 573.209,-244.772 573.209,-244.772 573.489,-249.764 568.716,-245.024 573.77,-254.756 573.77,-254.756"/>
</g>
<!-- UserService&#45;&gt;OrderService -->
<g id="edge11" class="edge"><title>UserService&#45;&gt;OrderService</title>
<path fill="none" stroke="#136431" d="M490.74,-139.734C474.619,-128.781 457.641,-117.246 441.47,-106.259"/>
<ellipse fill="none" stroke="#136431" cx="494.347" cy="-142.185" rx="4.00002" ry="4.00002"/>
<polygon fill="#136431" stroke="#136431" points="441.367,-106.189 435.625,-96.847 437.231,-103.379 433.096,-100.569 433.096,-100.569 433.096,-100.569 437.231,-103.379 430.567,-104.291 441.367,-106.189 441.367,-106.189"/>
</g>
</g>
</svg>
