<?xml version="1.0" encoding="UTF-8" standalone="no"?>
<!DOCTYPE svg PUBLIC "-//W3C//DTD SVG 1.1//EN"
 "http://www.w3.org/Graphics/SVG/1.1/DTD/svg11.dtd">
<!-- Generated by graphviz version 2.38.0 (20140413.2041)
 -->
<!-- Title: models_diagram Pages: 1 -->
<svg width="459pt" height="369pt"
 viewBox="0.00 0.00 459.42 369.00" xmlns="http://www.w3.org/2000/svg" xmlns:xlink="http://www.w3.org/1999/xlink">
<g id="graph0" class="graph" transform="scale(1 1) rotate(0) translate(4 365)">
<title>models_diagram</title>
<polygon fill="none" stroke="none" points="-4,4 -4,-365 455.418,-365 455.418,4 -4,4"/>
<!-- _diagram_info -->
<g id="node1" class="node"><title>_diagram_info</title>
<text text-anchor="start" x="8" y="-346.6" font-family="Times,serif" font-size="13.00">Models diagram</text>
<text text-anchor="start" x="8" y="-333.6" font-family="Times,serif" font-size="13.00">Date: Aug 04 2016 &#45; 16:51</text>
<text text-anchor="start" x="8" y="-320.6" font-family="Times,serif" font-size="13.00">Migration version: 20160803200719</text>
<text text-anchor="start" x="8" y="-307.6" font-family="Times,serif" font-size="13.00">Generated by RailRoady 1.5.1</text>
<text text-anchor="start" x="8" y="-294.6" font-family="Times,serif" font-size="13.00">http://railroady.prestonlee.com</text>
</g>
<!-- Order -->
<g id="node2" class="node"><title>Order</title>
<ellipse fill="none" stroke="black" cx="420.688" cy="-162" rx="30.9619" ry="18"/>
<text text-anchor="middle" x="420.688" y="-157.8" font-family="Times,serif" font-size="14.00">Order</text>
</g>
<!-- OrderService -->
<g id="node3" class="node"><title>OrderService</title>
<ellipse fill="none" stroke="black" cx="342.688" cy="-18" rx="57.4961" ry="18"/>
<text text-anchor="middle" x="342.688" y="-13.8" font-family="Times,serif" font-size="14.00">OrderService</text>
</g>
<!-- Order&#45;&gt;OrderService -->
<g id="edge1" class="edge"><title>Order&#45;&gt;OrderService</title>
<path fill="none" stroke="#cb91ed" d="M422.146,-135.668C422.114,-116.939 419.658,-91.4249 408.688,-72 401.419,-59.1292 389.673,-48.1904 378.09,-39.6525"/>
<ellipse fill="none" stroke="#cb91ed" cx="422.079" cy="-139.749" rx="4" ry="4"/>
<polygon fill="#cb91ed" stroke="#cb91ed" points="377.967,-39.5673 372.317,-30.1693 373.859,-36.7169 369.751,-33.8665 369.751,-33.8665 369.751,-33.8665 373.859,-36.7169 367.186,-37.5637 377.967,-39.5673 377.967,-39.5673"/>
</g>
<!-- Survey -->
<g id="node7" class="node"><title>Survey</title>
<ellipse fill="none" stroke="black" cx="364.688" cy="-90" rx="35.3216" ry="18"/>
<text text-anchor="middle" x="364.688" y="-85.8" font-family="Times,serif" font-size="14.00">Survey</text>
</g>
<!-- Order&#45;&gt;Survey -->
<g id="edge3" class="edge"><title>Order&#45;&gt;Survey</title>
<path fill="none" stroke="#5d29d8" d="M403.049,-138.951C396.567,-130.849 389.224,-121.67 382.709,-113.527"/>
<ellipse fill="none" stroke="#5d29d8" cx="405.761" cy="-142.341" rx="4.00002" ry="4.00002"/>
<ellipse fill="#5d29d8" stroke="#5d29d8" cx="379.968" cy="-110.101" rx="4.00002" ry="4.00002"/>
</g>
<!-- UserService -->
<g id="node9" class="node"><title>UserService</title>
<ellipse fill="none" stroke="black" cx="258.688" cy="-90" rx="53.1453" ry="18"/>
<text text-anchor="middle" x="258.688" y="-85.8" font-family="Times,serif" font-size="14.00">UserService</text>
</g>
<!-- Order&#45;&gt;UserService -->
<g id="edge2" class="edge"><title>Order&#45;&gt;UserService</title>
<path fill="none" stroke="#fdfe5e" d="M387.29,-146.431C385.395,-145.608 383.518,-144.793 381.688,-144 354.405,-132.176 323.687,-118.939 299.773,-108.652"/>
<polygon fill="#fdfe5e" stroke="#fdfe5e" points="387.6,-146.566 394.974,-154.682 392.185,-148.56 396.77,-150.555 396.77,-150.555 396.77,-150.555 392.185,-148.56 398.565,-146.429 387.6,-146.566 387.6,-146.566"/>
<polygon fill="#fdfe5e" stroke="#fdfe5e" points="299.49,-108.53 292.081,-100.446 294.897,-106.555 290.303,-104.58 290.303,-104.58 290.303,-104.58 294.897,-106.555 288.525,-108.714 299.49,-108.53 299.49,-108.53"/>
</g>
<!-- Schedule -->
<g id="node4" class="node"><title>Schedule</title>
<ellipse fill="none" stroke="black" cx="329.688" cy="-162" rx="42.5456" ry="18"/>
<text text-anchor="middle" x="329.688" y="-157.8" font-family="Times,serif" font-size="14.00">Schedule</text>
</g>
<!-- Service -->
<g id="node5" class="node"><title>Service</title>
<ellipse fill="none" stroke="black" cx="261.688" cy="-324.5" rx="36.7489" ry="18"/>
<text text-anchor="middle" x="261.688" y="-320.3" font-family="Times,serif" font-size="14.00">Service</text>
</g>
<!-- User -->
<g id="node8" class="node"><title>User</title>
<ellipse fill="none" stroke="black" cx="302.688" cy="-234" rx="27" ry="18"/>
<text text-anchor="middle" x="302.688" y="-229.8" font-family="Times,serif" font-size="14.00">User</text>
</g>
<!-- Service&#45;&gt;User -->
<g id="edge5" class="edge"><title>Service&#45;&gt;User</title>
<path fill="none" stroke="#121348" d="M273.661,-297.656C279.044,-286.036 285.383,-272.354 290.761,-260.745"/>
<polygon fill="#121348" stroke="#121348" points="273.603,-297.78 265.316,-304.962 271.501,-302.317 269.4,-306.854 269.4,-306.854 269.4,-306.854 271.501,-302.317 273.483,-308.745 273.603,-297.78 273.603,-297.78"/>
<polygon fill="#121348" stroke="#121348" points="290.807,-260.645 299.094,-253.463 292.909,-256.108 295.011,-251.572 295.011,-251.572 295.011,-251.572 292.909,-256.108 290.927,-249.68 290.807,-260.645 290.807,-260.645"/>
</g>
<!-- Service&#45;&gt;UserService -->
<g id="edge4" class="edge"><title>Service&#45;&gt;UserService</title>
<path fill="none" stroke="#74209a" d="M261.361,-298.16C260.793,-254.12 259.627,-163.828 259.041,-118.394"/>
<ellipse fill="none" stroke="#74209a" cx="261.415" cy="-302.404" rx="4" ry="4"/>
<polygon fill="#74209a" stroke="#74209a" points="259.038,-118.121 263.408,-108.063 258.973,-113.121 258.909,-108.121 258.909,-108.121 258.909,-108.121 258.973,-113.121 254.409,-108.179 259.038,-118.121 259.038,-118.121"/>
</g>
<!-- State -->
<g id="node6" class="node"><title>State</title>
<ellipse fill="none" stroke="black" cx="420.688" cy="-234" rx="27.5804" ry="18"/>
<text text-anchor="middle" x="420.688" y="-229.8" font-family="Times,serif" font-size="14.00">State</text>
</g>
<!-- State&#45;&gt;Order -->
<g id="edge6" class="edge"><title>State&#45;&gt;Order</title>
<path fill="none" stroke="#242c52" d="M420.688,-207.64C420.688,-202.063 420.688,-196.132 420.688,-190.476"/>
<ellipse fill="none" stroke="#242c52" cx="420.688" cy="-211.697" rx="4" ry="4"/>
<polygon fill="#242c52" stroke="#242c52" points="420.688,-190.104 425.188,-180.104 420.688,-185.104 420.688,-180.104 420.688,-180.104 420.688,-180.104 420.688,-185.104 416.188,-180.104 420.688,-190.104 420.688,-190.104"/>
</g>
<!-- User&#45;&gt;Order -->
<g id="edge9" class="edge"><title>User&#45;&gt;Order</title>
<path fill="none" stroke="#9e4442" d="M329.322,-217.2C347.583,-206.367 371.836,-191.98 390.764,-180.751"/>
<ellipse fill="none" stroke="#9e4442" cx="325.613" cy="-219.4" rx="4.00002" ry="4.00002"/>
<polygon fill="#9e4442" stroke="#9e4442" points="390.978,-180.624 401.875,-179.392 395.279,-178.073 399.579,-175.522 399.579,-175.522 399.579,-175.522 395.279,-178.073 397.283,-171.652 390.978,-180.624 390.978,-180.624"/>
</g>
<!-- User&#45;&gt;Schedule -->
<g id="edge7" class="edge"><title>User&#45;&gt;Schedule</title>
<path fill="none" stroke="#927e53" d="M312.031,-208.778C314.664,-201.95 317.531,-194.516 320.175,-187.663"/>
<ellipse fill="none" stroke="#927e53" cx="310.526" cy="-212.679" rx="4.00001" ry="4.00001"/>
<ellipse fill="#927e53" stroke="#927e53" cx="321.708" cy="-183.688" rx="4.00001" ry="4.00001"/>
</g>
<!-- User&#45;&gt;UserService -->
<g id="edge8" class="edge"><title>User&#45;&gt;UserService</title>
<path fill="none" stroke="#a7c22c" d="M290.18,-209.507C285.752,-200.473 281.043,-189.941 277.688,-180 270.835,-159.698 265.91,-135.928 262.794,-118.063"/>
<ellipse fill="none" stroke="#a7c22c" cx="291.999" cy="-213.124" rx="4.00002" ry="4.00002"/>
<polygon fill="#a7c22c" stroke="#a7c22c" points="262.768,-117.907 265.566,-107.304 261.948,-112.974 261.127,-108.042 261.127,-108.042 261.127,-108.042 261.948,-112.974 256.688,-108.781 262.768,-117.907 262.768,-117.907"/>
</g>
<!-- UserService&#45;&gt;OrderService -->
<g id="edge10" class="edge"><title>UserService&#45;&gt;OrderService</title>
<path fill="none" stroke="#318bb2" d="M284.105,-67.8188C294.07,-59.5146 305.519,-49.9741 315.636,-41.5427"/>
<ellipse fill="none" stroke="#318bb2" cx="280.822" cy="-70.5552" rx="4.00002" ry="4.00002"/>
<polygon fill="#318bb2" stroke="#318bb2" points="315.729,-41.4654 326.292,-38.5205 319.57,-38.2645 323.412,-35.0635 323.412,-35.0635 323.412,-35.0635 319.57,-38.2645 320.531,-31.6065 315.729,-41.4654 315.729,-41.4654"/>
</g>
</g>
</svg>
