<?xml version="1.0" encoding="UTF-8" standalone="no"?>
<!DOCTYPE svg PUBLIC "-//W3C//DTD SVG 1.1//EN"
 "http://www.w3.org/Graphics/SVG/1.1/DTD/svg11.dtd">
<!-- Generated by graphviz version 2.38.0 (20140413.2041)
 -->
<!-- Title: models_diagram Pages: 1 -->
<svg width="1014pt" height="909pt"
 viewBox="0.00 0.00 1013.55 909.00" xmlns="http://www.w3.org/2000/svg" xmlns:xlink="http://www.w3.org/1999/xlink">
<g id="graph0" class="graph" transform="scale(1 1) rotate(0) translate(4 905)">
<title>models_diagram</title>
<polygon fill="none" stroke="none" points="-4,4 -4,-905 1009.55,-905 1009.55,4 -4,4"/>
<!-- _diagram_info -->
<g id="node1" class="node"><title>_diagram_info</title>
<text text-anchor="start" x="8" y="-879.6" font-family="Times,serif" font-size="13.00">Models diagram</text>
<text text-anchor="start" x="8" y="-866.6" font-family="Times,serif" font-size="13.00">Date: Jul 25 2016 &#45; 18:58</text>
<text text-anchor="start" x="8" y="-853.6" font-family="Times,serif" font-size="13.00">Migration version: 20160725215717</text>
<text text-anchor="start" x="8" y="-840.6" font-family="Times,serif" font-size="13.00">Generated by RailRoady 1.5.1</text>
<text text-anchor="start" x="8" y="-827.6" font-family="Times,serif" font-size="13.00">http://railroady.prestonlee.com</text>
</g>
<!-- Order -->
<g id="node2" class="node"><title>Order</title>
<path fill="none" stroke="black" d="M161.825,-151.5C161.825,-151.5 385.55,-151.5 385.55,-151.5 391.55,-151.5 397.55,-157.5 397.55,-163.5 397.55,-163.5 397.55,-309.5 397.55,-309.5 397.55,-315.5 391.55,-321.5 385.55,-321.5 385.55,-321.5 161.825,-321.5 161.825,-321.5 155.825,-321.5 149.825,-315.5 149.825,-309.5 149.825,-309.5 149.825,-163.5 149.825,-163.5 149.825,-157.5 155.825,-151.5 161.825,-151.5"/>
<text text-anchor="middle" x="273.688" y="-306.3" font-family="Times,serif" font-size="14.00">Order</text>
<polyline fill="none" stroke="black" points="149.825,-299.5 397.55,-299.5 "/>
<text text-anchor="start" x="157.825" y="-284.3" font-family="Times,serif" font-size="14.00">updated_at :timestamp without time zone</text>
<text text-anchor="start" x="157.825" y="-270.3" font-family="Times,serif" font-size="14.00">date :timestamp without time zone</text>
<text text-anchor="start" x="157.825" y="-256.3" font-family="Times,serif" font-size="14.00">description :character varying</text>
<text text-anchor="start" x="157.825" y="-242.3" font-family="Times,serif" font-size="14.00">information :text</text>
<text text-anchor="start" x="157.825" y="-228.3" font-family="Times,serif" font-size="14.00">user_id :integer</text>
<text text-anchor="start" x="157.825" y="-214.3" font-family="Times,serif" font-size="14.00">state_id :integer</text>
<text text-anchor="start" x="157.825" y="-200.3" font-family="Times,serif" font-size="14.00">slot_id :integer</text>
<text text-anchor="start" x="157.825" y="-186.3" font-family="Times,serif" font-size="14.00">service_id :integer</text>
<text text-anchor="start" x="157.825" y="-172.3" font-family="Times,serif" font-size="14.00">created_at :timestamp without time zone</text>
<text text-anchor="start" x="157.825" y="-158.3" font-family="Times,serif" font-size="14.00">id :integer</text>
</g>
<!-- Survey -->
<g id="node6" class="node"><title>Survey</title>
<path fill="none" stroke="black" d="M161.825,-0.5C161.825,-0.5 385.55,-0.5 385.55,-0.5 391.55,-0.5 397.55,-6.5 397.55,-12.5 397.55,-12.5 397.55,-102.5 397.55,-102.5 397.55,-108.5 391.55,-114.5 385.55,-114.5 385.55,-114.5 161.825,-114.5 161.825,-114.5 155.825,-114.5 149.825,-108.5 149.825,-102.5 149.825,-102.5 149.825,-12.5 149.825,-12.5 149.825,-6.5 155.825,-0.5 161.825,-0.5"/>
<text text-anchor="middle" x="273.688" y="-99.3" font-family="Times,serif" font-size="14.00">Survey</text>
<polyline fill="none" stroke="black" points="149.825,-92.5 397.55,-92.5 "/>
<text text-anchor="start" x="157.825" y="-77.3" font-family="Times,serif" font-size="14.00">id :integer</text>
<text text-anchor="start" x="157.825" y="-63.3" font-family="Times,serif" font-size="14.00">stars :integer</text>
<text text-anchor="start" x="157.825" y="-49.3" font-family="Times,serif" font-size="14.00">comments :text</text>
<text text-anchor="start" x="157.825" y="-35.3" font-family="Times,serif" font-size="14.00">order_id :integer</text>
<text text-anchor="start" x="157.825" y="-21.3" font-family="Times,serif" font-size="14.00">created_at :timestamp without time zone</text>
<text text-anchor="start" x="157.825" y="-7.3" font-family="Times,serif" font-size="14.00">updated_at :timestamp without time zone</text>
</g>
<!-- Order&#45;&gt;Survey -->
<g id="edge1" class="edge"><title>Order&#45;&gt;Survey</title>
<path fill="none" stroke="#31b04b" d="M273.688,-143.205C273.688,-136.343 273.688,-129.512 273.688,-122.877"/>
<ellipse fill="none" stroke="#31b04b" cx="273.688" cy="-147.406" rx="4" ry="4"/>
<ellipse fill="#31b04b" stroke="#31b04b" cx="273.688" cy="-118.589" rx="4" ry="4"/>
</g>
<!-- Service -->
<g id="node3" class="node"><title>Service</title>
<path fill="none" stroke="black" d="M237.825,-814.5C237.825,-814.5 461.55,-814.5 461.55,-814.5 467.55,-814.5 473.55,-820.5 473.55,-826.5 473.55,-826.5 473.55,-888.5 473.55,-888.5 473.55,-894.5 467.55,-900.5 461.55,-900.5 461.55,-900.5 237.825,-900.5 237.825,-900.5 231.825,-900.5 225.825,-894.5 225.825,-888.5 225.825,-888.5 225.825,-826.5 225.825,-826.5 225.825,-820.5 231.825,-814.5 237.825,-814.5"/>
<text text-anchor="middle" x="349.688" y="-885.3" font-family="Times,serif" font-size="14.00">Service</text>
<polyline fill="none" stroke="black" points="225.825,-878.5 473.55,-878.5 "/>
<text text-anchor="start" x="233.825" y="-863.3" font-family="Times,serif" font-size="14.00">id :integer</text>
<text text-anchor="start" x="233.825" y="-849.3" font-family="Times,serif" font-size="14.00">name :character varying</text>
<text text-anchor="start" x="233.825" y="-835.3" font-family="Times,serif" font-size="14.00">created_at :timestamp without time zone</text>
<text text-anchor="start" x="233.825" y="-821.3" font-family="Times,serif" font-size="14.00">updated_at :timestamp without time zone</text>
</g>
<!-- Service&#45;&gt;Order -->
<g id="edge4" class="edge"><title>Service&#45;&gt;Order</title>
<path fill="none" stroke="#ab6f8c" d="M218.493,-815.089C203.55,-805.207 190.271,-793.017 180.688,-778 80.137,-620.426 140.605,-534.312 202.688,-358 205.893,-348.896 209.815,-339.714 214.154,-330.698"/>
<ellipse fill="none" stroke="#ab6f8c" cx="222.081" cy="-817.342" rx="4.00002" ry="4.00002"/>
<polygon fill="#ab6f8c" stroke="#ab6f8c" points="214.156,-330.694 222.647,-323.755 216.388,-326.22 218.62,-321.746 218.62,-321.746 218.62,-321.746 216.388,-326.22 214.594,-319.737 214.156,-330.694 214.156,-330.694"/>
</g>
<!-- User -->
<g id="node7" class="node"><title>User</title>
<path fill="none" stroke="black" d="M202.053,-509.5C202.053,-509.5 497.323,-509.5 497.323,-509.5 503.323,-509.5 509.323,-515.5 509.323,-521.5 509.323,-521.5 509.323,-765.5 509.323,-765.5 509.323,-771.5 503.323,-777.5 497.323,-777.5 497.323,-777.5 202.053,-777.5 202.053,-777.5 196.053,-777.5 190.053,-771.5 190.053,-765.5 190.053,-765.5 190.053,-521.5 190.053,-521.5 190.053,-515.5 196.053,-509.5 202.053,-509.5"/>
<text text-anchor="middle" x="349.688" y="-762.3" font-family="Times,serif" font-size="14.00">User</text>
<polyline fill="none" stroke="black" points="190.053,-755.5 509.323,-755.5 "/>
<text text-anchor="start" x="198.053" y="-740.3" font-family="Times,serif" font-size="14.00">is_provider :boolean</text>
<text text-anchor="start" x="198.053" y="-726.3" font-family="Times,serif" font-size="14.00">email :character varying</text>
<text text-anchor="start" x="198.053" y="-712.3" font-family="Times,serif" font-size="14.00">encrypted_password :character varying</text>
<text text-anchor="start" x="198.053" y="-698.3" font-family="Times,serif" font-size="14.00">reset_password_token :character varying</text>
<text text-anchor="start" x="198.053" y="-684.3" font-family="Times,serif" font-size="14.00">reset_password_sent_at :timestamp without time zone</text>
<text text-anchor="start" x="198.053" y="-670.3" font-family="Times,serif" font-size="14.00">remember_created_at :timestamp without time zone</text>
<text text-anchor="start" x="198.053" y="-656.3" font-family="Times,serif" font-size="14.00">sign_in_count :integer</text>
<text text-anchor="start" x="198.053" y="-642.3" font-family="Times,serif" font-size="14.00">current_sign_in_at :timestamp without time zone</text>
<text text-anchor="start" x="198.053" y="-628.3" font-family="Times,serif" font-size="14.00">last_sign_in_at :timestamp without time zone</text>
<text text-anchor="start" x="198.053" y="-614.3" font-family="Times,serif" font-size="14.00">current_sign_in_ip :inet</text>
<text text-anchor="start" x="198.053" y="-600.3" font-family="Times,serif" font-size="14.00">last_sign_in_ip :inet</text>
<text text-anchor="start" x="198.053" y="-586.3" font-family="Times,serif" font-size="14.00">created_at :timestamp without time zone</text>
<text text-anchor="start" x="198.053" y="-572.3" font-family="Times,serif" font-size="14.00">updated_at :timestamp without time zone</text>
<text text-anchor="start" x="198.053" y="-558.3" font-family="Times,serif" font-size="14.00">name :character varying</text>
<text text-anchor="start" x="198.053" y="-544.3" font-family="Times,serif" font-size="14.00">address :text</text>
<text text-anchor="start" x="198.053" y="-530.3" font-family="Times,serif" font-size="14.00">phone :integer</text>
<text text-anchor="start" x="198.053" y="-516.3" font-family="Times,serif" font-size="14.00">id :integer</text>
</g>
<!-- Service&#45;&gt;User -->
<g id="edge3" class="edge"><title>Service&#45;&gt;User</title>
<path fill="none" stroke="#36e790" d="M349.688,-804.212C349.688,-799.036 349.688,-793.627 349.688,-788.06"/>
<polygon fill="#36e790" stroke="#36e790" points="349.688,-804.362 345.188,-814.362 349.688,-809.362 349.688,-814.362 349.688,-814.362 349.688,-814.362 349.688,-809.362 354.188,-814.362 349.688,-804.362 349.688,-804.362"/>
<polygon fill="#36e790" stroke="#36e790" points="349.688,-787.883 354.188,-777.883 349.688,-782.883 349.688,-777.883 349.688,-777.883 349.688,-777.883 349.688,-782.883 345.188,-777.883 349.688,-787.883 349.688,-787.883"/>
</g>
<!-- UserService -->
<g id="node8" class="node"><title>UserService</title>
<path fill="none" stroke="black" d="M503.825,-365.5C503.825,-365.5 727.55,-365.5 727.55,-365.5 733.55,-365.5 739.55,-371.5 739.55,-377.5 739.55,-377.5 739.55,-453.5 739.55,-453.5 739.55,-459.5 733.55,-465.5 727.55,-465.5 727.55,-465.5 503.825,-465.5 503.825,-465.5 497.825,-465.5 491.825,-459.5 491.825,-453.5 491.825,-453.5 491.825,-377.5 491.825,-377.5 491.825,-371.5 497.825,-365.5 503.825,-365.5"/>
<text text-anchor="middle" x="615.688" y="-450.3" font-family="Times,serif" font-size="14.00">UserService</text>
<polyline fill="none" stroke="black" points="491.825,-443.5 739.55,-443.5 "/>
<text text-anchor="start" x="499.825" y="-428.3" font-family="Times,serif" font-size="14.00">id :integer</text>
<text text-anchor="start" x="499.825" y="-414.3" font-family="Times,serif" font-size="14.00">user_id :integer</text>
<text text-anchor="start" x="499.825" y="-400.3" font-family="Times,serif" font-size="14.00">service_id :integer</text>
<text text-anchor="start" x="499.825" y="-386.3" font-family="Times,serif" font-size="14.00">created_at :timestamp without time zone</text>
<text text-anchor="start" x="499.825" y="-372.3" font-family="Times,serif" font-size="14.00">updated_at :timestamp without time zone</text>
</g>
<!-- Service&#45;&gt;UserService -->
<g id="edge2" class="edge"><title>Service&#45;&gt;UserService</title>
<path fill="none" stroke="#04cc97" d="M480.703,-810.471C494.908,-801.398 508.043,-790.662 518.688,-778 591.92,-690.888 610.351,-553.774 614.688,-475.845"/>
<ellipse fill="none" stroke="#04cc97" cx="477.061" cy="-812.703" rx="4.00002" ry="4.00002"/>
<polygon fill="#04cc97" stroke="#04cc97" points="614.695,-475.704 619.685,-465.939 614.942,-470.71 615.19,-465.716 615.19,-465.716 615.19,-465.716 614.942,-470.71 610.696,-465.493 614.695,-475.704 614.695,-475.704"/>
</g>
<!-- Slot -->
<g id="node4" class="node"><title>Slot</title>
<path fill="none" stroke="black" d="M237.825,-358.5C237.825,-358.5 461.55,-358.5 461.55,-358.5 467.55,-358.5 473.55,-364.5 473.55,-370.5 473.55,-370.5 473.55,-460.5 473.55,-460.5 473.55,-466.5 467.55,-472.5 461.55,-472.5 461.55,-472.5 237.825,-472.5 237.825,-472.5 231.825,-472.5 225.825,-466.5 225.825,-460.5 225.825,-460.5 225.825,-370.5 225.825,-370.5 225.825,-364.5 231.825,-358.5 237.825,-358.5"/>
<text text-anchor="middle" x="349.688" y="-457.3" font-family="Times,serif" font-size="14.00">Slot</text>
<polyline fill="none" stroke="black" points="225.825,-450.5 473.55,-450.5 "/>
<text text-anchor="start" x="233.825" y="-435.3" font-family="Times,serif" font-size="14.00">id :integer</text>
<text text-anchor="start" x="233.825" y="-421.3" font-family="Times,serif" font-size="14.00">starttime :timestamp without time zone</text>
<text text-anchor="start" x="233.825" y="-407.3" font-family="Times,serif" font-size="14.00">endtime :timestamp without time zone</text>
<text text-anchor="start" x="233.825" y="-393.3" font-family="Times,serif" font-size="14.00">user_id :integer</text>
<text text-anchor="start" x="233.825" y="-379.3" font-family="Times,serif" font-size="14.00">created_at :timestamp without time zone</text>
<text text-anchor="start" x="233.825" y="-365.3" font-family="Times,serif" font-size="14.00">updated_at :timestamp without time zone</text>
</g>
<!-- Slot&#45;&gt;Order -->
<g id="edge5" class="edge"><title>Slot&#45;&gt;Order</title>
<path fill="none" stroke="#f776be" d="M322.402,-350.952C319.588,-344.4 316.69,-337.65 313.775,-330.86"/>
<ellipse fill="none" stroke="#f776be" cx="324.063" cy="-354.821" rx="4.00002" ry="4.00002"/>
<polygon fill="#f776be" stroke="#f776be" points="313.741,-330.783 313.931,-319.818 311.769,-326.188 309.796,-321.594 309.796,-321.594 309.796,-321.594 311.769,-326.188 305.661,-323.369 313.741,-330.783 313.741,-330.783"/>
</g>
<!-- State -->
<g id="node5" class="node"><title>State</title>
<path fill="none" stroke="black" d="M769.825,-365.5C769.825,-365.5 993.55,-365.5 993.55,-365.5 999.55,-365.5 1005.55,-371.5 1005.55,-377.5 1005.55,-377.5 1005.55,-453.5 1005.55,-453.5 1005.55,-459.5 999.55,-465.5 993.55,-465.5 993.55,-465.5 769.825,-465.5 769.825,-465.5 763.825,-465.5 757.825,-459.5 757.825,-453.5 757.825,-453.5 757.825,-377.5 757.825,-377.5 757.825,-371.5 763.825,-365.5 769.825,-365.5"/>
<text text-anchor="middle" x="881.688" y="-450.3" font-family="Times,serif" font-size="14.00">State</text>
<polyline fill="none" stroke="black" points="757.825,-443.5 1005.55,-443.5 "/>
<text text-anchor="start" x="765.825" y="-428.3" font-family="Times,serif" font-size="14.00">id :integer</text>
<text text-anchor="start" x="765.825" y="-414.3" font-family="Times,serif" font-size="14.00">name :character varying</text>
<text text-anchor="start" x="765.825" y="-400.3" font-family="Times,serif" font-size="14.00">description :text</text>
<text text-anchor="start" x="765.825" y="-386.3" font-family="Times,serif" font-size="14.00">created_at :timestamp without time zone</text>
<text text-anchor="start" x="765.825" y="-372.3" font-family="Times,serif" font-size="14.00">updated_at :timestamp without time zone</text>
</g>
<!-- State&#45;&gt;Order -->
<g id="edge6" class="edge"><title>State&#45;&gt;Order</title>
<path fill="none" stroke="#60e25a" d="M762.084,-362.691C757.58,-361.059 753.104,-359.489 748.688,-358 635.473,-319.843 503.537,-287.289 407.485,-265.673"/>
<ellipse fill="none" stroke="#60e25a" cx="765.931" cy="-364.108" rx="4.00001" ry="4.00001"/>
<polygon fill="#60e25a" stroke="#60e25a" points="407.476,-265.671 398.702,-259.093 402.597,-264.577 397.718,-263.484 397.718,-263.484 397.718,-263.484 402.597,-264.577 396.734,-267.875 407.476,-265.671 407.476,-265.671"/>
</g>
<!-- User&#45;&gt;Order -->
<g id="edge9" class="edge"><title>User&#45;&gt;Order</title>
<path fill="none" stroke="#6f189b" d="M229.194,-502.084C224.338,-492.584 220.095,-482.86 216.688,-473 199.997,-424.691 205.488,-407.869 216.688,-358 218.68,-349.128 221.404,-340.142 224.587,-331.284"/>
<ellipse fill="none" stroke="#6f189b" cx="231.15" cy="-505.77" rx="4.00002" ry="4.00002"/>
<polygon fill="#6f189b" stroke="#6f189b" points="224.662,-331.085 232.416,-323.331 226.435,-326.41 228.208,-321.735 228.208,-321.735 228.208,-321.735 226.435,-326.41 224.001,-320.139 224.662,-331.085 224.662,-331.085"/>
</g>
<!-- User&#45;&gt;Slot -->
<g id="edge8" class="edge"><title>User&#45;&gt;Slot</title>
<path fill="none" stroke="#0741e5" d="M349.688,-501.33C349.688,-495.087 349.688,-488.967 349.688,-483.052"/>
<ellipse fill="none" stroke="#0741e5" cx="349.688" cy="-505.401" rx="4" ry="4"/>
<polygon fill="#0741e5" stroke="#0741e5" points="349.688,-482.645 354.188,-472.645 349.688,-477.645 349.688,-472.645 349.688,-472.645 349.688,-472.645 349.688,-477.645 345.188,-472.645 349.688,-482.645 349.688,-482.645"/>
</g>
<!-- User&#45;&gt;UserService -->
<g id="edge7" class="edge"><title>User&#45;&gt;UserService</title>
<path fill="none" stroke="#3481c2" d="M512.74,-503.967C525.728,-492.932 538.312,-482.24 549.962,-472.342"/>
<ellipse fill="none" stroke="#3481c2" cx="509.392" cy="-506.811" rx="4.00002" ry="4.00002"/>
<polygon fill="#3481c2" stroke="#3481c2" points="550.25,-472.097 560.785,-469.052 554.061,-468.86 557.871,-465.622 557.871,-465.622 557.871,-465.622 554.061,-468.86 554.957,-462.193 550.25,-472.097 550.25,-472.097"/>
</g>
</g>
</svg>
